<svg width="12" height="29" viewBox="0 0 12 29" fill="none" xmlns="http://www.w3.org/2000/svg">
<path fill-rule="evenodd" clip-rule="evenodd" d="M4.59087 27.1826C5.21696 27.913 5.89522 28.8522 6.99087 28.7478C9.44304 28.487 11.217 24.313 11.8952 22.3304C12.2083 21.4435 10.7474 21.0261 10.4865 21.913C10.017 23.2696 8.19087 27.8609 6.20826 26.713L6.15609 26.6609C6.57348 26.8174 7.14739 26.5565 7.09522 25.9826C6.41696 17.5826 5.68652 9.23478 5.00826 0.83478C4.90391 -0.10435 3.44304 -0.10435 3.54739 0.83478C4.22565 9.23478 4.95609 17.5826 5.63435 25.9826C5.63435 26.087 5.68652 26.1913 5.7387 26.2956C5.11261 25.6696 4.5387 24.7304 4.06913 24.2087C3.13 23.1652 2.24304 22.1217 1.30391 21.0783C0.677827 20.3478 -0.365651 21.3913 0.260436 22.1217C1.61696 23.8435 3.07783 25.513 4.59087 27.1826Z" fill="#E09EC5"/>
</svg>
