<svg width="12" height="32" viewBox="0 0 12 32" fill="none" xmlns="http://www.w3.org/2000/svg">
<path fill-rule="evenodd" clip-rule="evenodd" d="M2.9347 28.5288C3.81522 29.6441 5.04795 31.5813 6.51548 31.8748C7.5721 32.0509 8.27652 31.4052 8.74613 30.5247C9.86145 28.5288 10.742 26.3569 11.6812 24.3023C12.1508 23.3631 10.6833 22.4826 10.2724 23.4805C9.62665 24.8306 9.03963 26.1808 8.39392 27.4722C6.92639 18.7257 6.16327 9.92051 6.04587 0.997912C6.04587 -0.0587115 4.34353 -0.0587115 4.40223 0.997912C4.51963 10.6249 5.45885 20.2519 7.10249 29.7028C6.86769 29.8202 6.57418 29.8202 6.16327 29.5854C5.10665 28.9397 4.16743 27.2961 3.46301 26.2982C2.69989 25.1828 2.05418 23.9501 1.52587 22.6587C1.11496 21.6608 -0.352574 22.5413 0.117036 23.4805C0.821452 25.3589 1.76067 27.0026 2.9347 28.5288Z" fill="#E8C939"/>
</svg>
