<svg width="12" height="31" viewBox="0 0 12 31" fill="none" xmlns="http://www.w3.org/2000/svg">
<path fill-rule="evenodd" clip-rule="evenodd" d="M0.678212 25.2C2.66082 26.6609 4.17386 28.4348 5.37386 30.5739C5.63473 30.9913 6.20865 31.0435 6.52169 30.7304C8.60865 28.7478 10.4347 26.5565 11.8956 24.0522C12.3652 23.2174 11.113 22.4869 10.6434 23.3217C9.65213 25.0435 8.45213 26.6087 7.14778 28.0174C6.57386 19.0435 6.46952 10.0174 6.83473 1.04346C6.88691 0.104329 5.37386 0.104329 5.37386 1.04346C5.00865 10.1217 5.113 19.2 5.68691 28.2261C4.53908 26.5565 3.13039 25.1478 1.46082 23.8956C0.678212 23.3739 -0.0522223 24.6782 0.678212 25.2Z" fill="#9AB548"/>
</svg>
