<svg width="1356" height="685" viewBox="0 0 1356 685" fill="none" xmlns="http://www.w3.org/2000/svg">
<g clip-path="url(#clip0)">
<path d="M1356 -5836H-10V1323H1356V-5836Z" fill="white"/>
<path opacity="0.154111" fill-rule="evenodd" clip-rule="evenodd" d="M-58 -101L-42.3267 685H1356V17.5097C1126.77 -19.8362 980.709 65.5766 837.473 150.989C711.675 226.006 588.051 301.021 412.172 292.871C279.574 286.728 46.4827 198.761 -58 -101Z" fill="#E8C939"/>
<path fill-rule="evenodd" clip-rule="evenodd" d="M1541 334.5C1242.12 443.106 451 324.5 -9.99939 351.585C-471 378.669 -477.73 618.036 -293.317 977.047C-40.9822 1468.29 599.194 1210.78 1460.08 1134.5C1821.23 1102.5 2324.21 1140.05 2157.24 580.523C2038.52 183.61 1850.59 222 1541 334.5Z" fill="#9AB548"/>
</g>
<defs>
<clipPath id="clip0">
<rect width="1366" height="1323" fill="white" transform="translate(-10)"/>
</clipPath>
</defs>
</svg>
