<svg width="1366" height="1424" viewBox="0 0 1366 1424" fill="none" xmlns="http://www.w3.org/2000/svg">
<path fill-rule="evenodd" clip-rule="evenodd" d="M1551 435.5C1252.12 544.106 460.999 425.5 -0.000527876 452.585C-461.001 479.669 -467.731 719.036 -283.318 1078.05C-30.9834 1569.29 609.193 1311.78 1470.08 1235.5C1831.23 1203.5 2334.21 1241.05 2167.24 681.523C2048.52 284.61 1860.59 323 1551 435.5Z" fill="#9AB548"/>
<path fill-rule="evenodd" clip-rule="evenodd" d="M-0.00131187 1256C421.162 1256 1185.26 1186.17 1551 1219C1901.46 1250.46 2115.26 1490.49 1930.84 1849.5C1678.51 2340.74 1342.36 2028.7 481.472 1952.42C120.322 1920.42 -686.684 2012.51 -519.719 1452.98C-400.992 1056.06 -298.496 1256 -0.00131187 1256Z" fill="#333333"/>
<path opacity="0.154111" fill-rule="evenodd" clip-rule="evenodd" d="M-48.001 0L-32.3277 786H1366V118.51C1136.77 81.1638 990.708 166.577 847.472 251.989C721.674 327.006 598.05 402.021 422.171 393.871C289.573 387.728 56.4818 299.761 -48.001 0Z" fill="#E8C939"/>
</svg>
