<svg width="900" height="748" viewBox="0 0 900 748" fill="none" xmlns="http://www.w3.org/2000/svg">
<path fill-rule="evenodd" clip-rule="evenodd" d="M7.44165 294.854C56.7304 22.0678 290.09 56.215 472.947 82.972C485.972 84.878 498.741 86.7464 511.168 88.4637C527.021 89.4159 539.048 85.0151 554.714 79.2833C566.308 75.0412 579.895 70.0699 598.5 66C624.119 60.3959 653.24 68.465 681.229 76.2201C704.902 82.7795 727.765 89.1142 747.011 86.7608C742.315 87.4695 735.885 88.4372 728.313 89.5679C796.435 80.3846 863.12 64.1858 929.481 48.0657C1033.83 22.7191 1137.37 -2.43278 1244.43 0.188565C1466.13 5.62056 1665.56 180.233 1565.42 470.729C1437.74 841.064 1043.04 752.606 782.099 694.126C762.966 689.838 744.553 685.711 727.016 681.938C681.138 672.069 616.422 669.456 544.315 666.544H544.315C290.406 656.292 -55.149 642.339 7.44165 294.854ZM747.011 86.7608C749.353 86.4075 751.263 86.1186 752.668 85.906L752.694 85.9021C754.467 85.6339 755.429 85.4884 755.43 85.49C755.43 85.4919 754.075 85.7011 751.113 86.1582L748.899 86.5C748.274 86.5965 747.645 86.6834 747.011 86.7608ZM123.5 646C124.798 650 135.132 647.543 139.5 645C143.868 642.457 146.5 635.5 144 632.5C141.5 629.5 136.957 630.772 130.5 634.5C124.043 638.228 122.202 642 123.5 646ZM148.493 677.015C145.79 682.538 140.545 685.015 137.493 685.015C134.442 685.015 127.493 683.22 130.934 673.22C134.131 663.93 136.791 663.957 141.803 664.007L142.112 664.01C142.217 664.011 142.322 664.012 142.428 664.013C142.537 664.014 142.647 664.014 142.758 664.015C142.836 664.015 142.914 664.015 142.993 664.015C148.792 664.015 151.197 671.492 148.493 677.015ZM168.26 664C176.514 664 183.206 658.437 187.139 649.662C191.072 640.888 185.954 633 177.7 633C169.445 633 162.901 638.425 160.074 647.725C157.248 657.025 160.006 664 168.26 664ZM550 63.5C548 71 543.508 77 535.5 77C527.492 77 521 70.9558 521 63.5C521 56.0442 526.648 43.9198 540.461 43.9198C554.274 43.9198 552 56 550 63.5ZM562 52C567.799 52 571.916 46 574 41.5C576.084 37 577 32.5 572 30.5C567 28.5 561.5 34 560 37C558.5 40 556.201 52 562 52ZM548 28C546.58 31.5 545.038 33 542 33C538.999 33 539 28.8624 539 26.0999V26C539 23.2386 541.462 21 544.5 21C547.538 21 549.42 24.5 548 28ZM798.548 707.919C804.259 712.711 807.973 720.008 802.825 726.143C797.678 732.277 787.732 732.407 782.021 727.614C776.309 722.822 775.852 713.964 781 707.829C786.147 701.694 792.836 703.126 798.548 707.919ZM827.5 734C833.299 734 838 729.523 838 724C838 718.477 833.299 714 827.5 714C821.701 714 821 718.477 821 724C821 729.523 821.701 734 827.5 734ZM817 742.5C817 744.433 814.985 748 812.5 748C810.015 748 808 744.433 808 742.5C808 740.567 810.015 739 812.5 739C814.985 739 817 740.567 817 742.5Z" fill="#E09EC5"/>
</svg>
