<svg width="59" height="49" viewBox="0 0 59 49" fill="none" xmlns="http://www.w3.org/2000/svg">
<path fill-rule="evenodd" clip-rule="evenodd" d="M5.29079 8.84579C4.71602 8.94714 4.51588 9.31246 4.69235 9.93818C5.62469 13.7291 4.98445 17.2026 2.77398 20.3611C2.4687 20.8766 2.56226 21.3042 3.04986 21.6462C3.53979 21.9904 3.97499 21.9285 4.35247 21.4658C5.92118 19.1467 6.77944 16.7221 6.92513 14.191C9.10836 18.3539 11.8211 21.4016 15.0616 23.3343C19.5585 26.0344 24.5926 26.3651 30.1646 24.3289C31.4623 23.8375 32.535 23.3832 33.3843 22.9708C34.779 26.0188 36.5361 28.8719 38.6507 31.5316C41.7175 35.4726 44.8585 38.1472 48.0737 39.5579C51.8784 41.3257 55.1498 41.0108 57.8919 38.6164C58.3464 38.2082 58.3681 37.7758 57.9596 37.32C57.549 36.8666 57.1168 36.8429 56.6628 37.2537C54.4935 39.1528 51.8654 39.384 48.7779 37.9508C45.8424 36.6263 42.9271 34.1065 40.0324 30.399C37.9914 27.7925 36.3117 24.9925 34.9915 21.9949C36.2216 21.1205 37.3159 20.038 38.2748 18.7465C38.8553 17.9205 39.3124 16.7837 39.6512 15.3409C39.9898 13.8962 40.1 12.4619 39.9782 11.0323C39.8886 9.40243 39.499 8.11921 38.8064 7.18507C37.9835 5.88293 36.7824 5.23754 35.2035 5.25204C34.0185 5.26127 33.0848 5.75789 32.4006 6.73508C32.0209 7.19626 31.6326 7.99095 31.238 9.11418C30.2727 11.8547 30.5728 15.4283 32.1385 19.8291C32.2945 20.3314 32.4795 20.8253 32.6978 21.3133C31.8474 21.7265 30.774 22.181 29.4775 22.6722C24.5328 24.5329 20.0322 24.2384 15.9752 21.7896C12.9381 19.889 10.3717 16.9141 8.27317 12.8672C10.292 14.2262 12.2657 15.3255 14.1943 16.1726C14.7629 16.4037 15.161 16.2343 15.3893 15.6649C15.6207 15.0983 15.4508 14.7009 14.8825 14.4711C12.0966 13.2486 9.29097 11.5348 6.46346 9.32956L6.35091 9.2502C6.08061 8.8388 5.72785 8.70259 5.29079 8.84579ZM34.1903 20.2571C34.0728 19.951 33.9459 19.6103 33.8134 19.2375C32.3777 15.2066 32.0885 12.0623 32.9414 9.802C33.2958 8.81876 33.6029 8.13696 33.8659 7.76055C34.1811 7.30879 34.6016 7.07126 35.1235 7.04536C36.1155 7.06692 36.8715 7.42705 37.3899 8.12798C37.8466 8.83852 38.1219 9.84492 38.2188 11.1447C38.3062 12.3827 38.1949 13.62 37.8863 14.863C37.5774 16.1008 37.1803 17.0293 36.6955 17.6413C36.0236 18.6844 35.189 19.5558 34.1903 20.2571Z" fill="#E8C939"/>
</svg>
