<svg width="1252" height="299" viewBox="0 0 1252 299" fill="none" xmlns="http://www.w3.org/2000/svg">
<path opacity="0.1" d="M0.200001 291H199.8V233.4H62.6V175.8H185.4V118.2H62.6V65.4H192.6V7.8H0.200001V291ZM220.953 291H294.953L362.153 177L431.353 291H509.753L407.353 141.8L498.953 7.8H423.353L365.353 107L304.953 7.8H226.553L320.153 143L220.953 291ZM538.425 291H600.825V180.6H646.425C706.025 180.6 751.225 160.2 751.225 93.8C751.225 26.6 702.425 7.8 643.625 7.8H538.425V291ZM600.825 60.6H632.825C656.825 60.6 686.425 64.6 686.425 93.8C686.425 120.2 664.425 127.8 642.425 127.8H600.825V60.6ZM792.778 291H970.778V233.4H855.178V7.8H792.778V291ZM990.022 149.4C990.022 240.2 1054.42 298.2 1142.82 298.2C1231.22 298.2 1295.62 240.2 1295.62 149.4C1295.62 58.6 1231.22 0.599996 1142.82 0.599996C1054.42 0.599996 990.022 58.6 990.022 149.4ZM1054.82 149.4C1054.82 96.6 1089.62 58.2 1142.82 58.2C1196.02 58.2 1230.82 96.6 1230.82 149.4C1230.82 202.2 1196.02 240.6 1142.82 240.6C1089.62 240.6 1054.82 202.2 1054.82 149.4ZM1338.03 291H1400.43V177.8H1431.23L1490.43 291H1565.23L1493.23 171.4C1533.23 164.2 1554.43 133.4 1554.43 93.8C1554.43 27.8 1505.63 7.8 1447.63 7.8H1338.03V291ZM1400.43 60.6H1441.23C1464.03 60.6 1489.63 65 1489.63 93.4C1489.63 124.2 1460.03 125 1437.23 125H1400.43V60.6ZM1599.81 291H1799.41V233.4H1662.21V175.8H1785.01V118.2H1662.21V65.4H1792.21V7.8H1599.81V291Z" fill="#E09EC5"/>
</svg>
