<svg width="343" height="418" viewBox="0 0 343 418" fill="none" xmlns="http://www.w3.org/2000/svg">
<path opacity="0.219145" fill-rule="evenodd" clip-rule="evenodd" d="M-48.8631 76.6791C30.5165 223.604 -101.705 253.241 -149.311 188.256C-160.077 171.744 -164.103 150.004 -167.829 129.885C-174.332 94.7726 -179.921 64.595 -218.822 75.7494C-245.592 83.4258 -250.486 109.661 -236.257 130.414C-201.249 165.901 -174.985 199.757 -186.431 232.01C-208.594 290.139 -246.098 298.694 -282.499 294.572C-282.731 292.731 -283.16 290.86 -283.784 288.988C-287.762 277.053 -303.676 273.074 -315.612 277.053C-319.017 278.755 -322.422 281.915 -324.58 285.909C-341.641 281.573 -356.637 277.796 -367.273 279.727C-406.614 286.869 -404.928 336.05 -356.842 330.539C-328.975 326.687 -293.993 333.211 -254.091 342.462C-103.305 376.458 -153.536 498.063 -195.022 598.5C-204.668 621.852 -213.841 644.06 -219.905 663.756C-245.497 762.146 -162.457 734.196 -149.915 705.767C-145.98 692.051 -146.468 679.603 -147.026 665.355C-147.937 642.128 -149.034 614.119 -131.465 568.038C-122.747 540.706 -107.477 507.357 -79.0748 490.935C-18.4467 456.996 16.0274 505.052 10.0646 556.426C8.5502 573.605 6.82339 590.042 5.19693 605.525C1.59708 639.791 -1.5112 669.379 -0.73703 691.962C9.69427 742.774 59.9731 744.912 83.4539 725.763C114.095 698.689 99.2829 670.912 81.5847 637.724C59.2293 595.802 32.2696 545.247 86.4973 476.568C98.505 460.709 123.082 445.384 151.512 457.925C168.074 467.106 177.463 483.969 188.34 503.506C193.622 512.993 199.255 523.111 206.232 533.286C256.031 605.919 348.857 525.498 287.613 485.118C276.234 476.503 262.889 472.18 249.392 467.807C225.266 459.992 200.653 452.018 185.904 419.093C168.386 386.867 183.656 353.518 210.961 333.272C238.062 308.382 264.996 308.106 288.132 307.869C304.149 307.705 318.346 307.56 329.517 299.277C381.399 263.706 321.224 198.187 266.613 238.679C259.491 244.07 252.435 248.907 245.458 253.223C244.112 253.183 242.745 253.183 241.378 253.183C240.21 254.35 239.043 255.86 238.076 257.613C102.072 335.238 -1.75323 215.373 21.689 135.084C71.8036 -36.5569 -104.707 -31.4691 -48.8631 76.6791ZM209.55 70.1771C173.743 86.0906 157.829 125.874 173.743 161.68C189.657 197.485 229.442 213.399 265.249 197.485C301.055 181.572 316.969 137.81 301.055 105.983C285.141 70.1771 245.356 54.2636 209.55 70.1771ZM-351.418 436.188C-363.353 408.339 -351.418 380.491 -327.547 368.556C-299.698 356.62 -271.848 368.556 -259.913 392.426C-247.977 420.274 -259.913 452.101 -283.784 460.058C-311.633 471.993 -339.483 460.058 -351.418 436.188ZM-283.784 161.68C-291.741 165.658 -291.741 173.615 -291.741 181.572C-287.762 185.55 -279.805 189.528 -271.848 185.55C-267.87 181.572 -263.891 173.615 -267.87 169.637C-271.848 161.68 -275.827 157.701 -283.784 161.68ZM257.292 412.318C253.313 416.296 249.335 420.274 253.313 424.253C253.313 432.21 261.27 432.21 265.249 432.21C269.227 428.231 273.206 424.253 269.227 420.274C269.227 412.318 261.27 412.318 257.292 412.318ZM348.797 424.253C344.819 420.274 348.797 412.318 352.776 408.339C360.733 404.361 368.69 408.339 372.668 416.296C376.647 420.274 372.668 428.231 364.711 432.21C360.733 436.188 352.776 432.21 348.797 424.253ZM141.915 209.42C133.958 213.399 129.98 225.334 133.958 233.291C137.937 241.247 145.894 245.226 157.829 241.247C165.786 237.269 169.765 225.334 165.786 217.377C161.808 209.42 149.872 205.442 141.915 209.42Z" fill="#9AB548"/>
</svg>
