<svg width="1356" height="338" viewBox="0 0 1356 338" fill="none" xmlns="http://www.w3.org/2000/svg">
<g clip-path="url(#clip0)">
<path d="M1356 -6821H-10V338H1356V-6821Z" fill="white"/>
<path fill-rule="evenodd" clip-rule="evenodd" d="M1541 -650.5C1242.12 -541.894 451 -660.5 -9.99939 -633.415C-471 -606.331 -477.73 -366.964 -293.317 -7.95312C-40.9822 483.29 599.194 225.78 1460.08 149.5C1821.23 117.5 2324.21 155.05 2157.24 -404.477C2038.52 -801.39 1850.59 -763 1541 -650.5Z" fill="#9AB548"/>
<path fill-rule="evenodd" clip-rule="evenodd" d="M-10.0002 170C411.163 170 1175.26 100.17 1541 133C1891.46 164.46 2105.26 404.49 1920.84 763.5C1668.51 1254.74 1332.36 942.7 471.473 866.42C110.323 834.42 -696.683 926.51 -529.718 366.98C-410.991 -29.9353 -308.495 170 -10.0002 170Z" fill="#333333"/>
</g>
<defs>
<clipPath id="clip0">
<rect width="1366" height="1323" fill="white" transform="translate(-10 -985)"/>
</clipPath>
</defs>
</svg>
