<svg width="29" height="35" viewBox="0 0 29 35" fill="none" xmlns="http://www.w3.org/2000/svg">
<path fill-rule="evenodd" clip-rule="evenodd" d="M25.2514 3.07963C22.57 1.67466 19.2493 2.89155 17.4348 5.10812C16.2162 6.59674 15.5599 8.45422 15.0661 10.2876C14.8476 11.0986 14.6415 11.9136 14.4392 12.7294C13.7147 10.9861 12.7245 9.36056 11.4653 7.92907C10.1228 6.40305 6.58843 2.53725 4.50557 4.7793C2.26752 7.18839 2.78998 11.1217 3.72065 13.9527C4.73197 17.0301 6.43633 19.9506 8.20085 22.6517C10.218 25.7397 12.5897 28.55 15.2188 31.131C15.2138 31.143 15.2086 31.1549 15.2035 31.1669L15.2034 31.1671C15.1983 31.179 15.1932 31.1909 15.1882 31.2028C14.5196 32.8051 17.0112 33.83 17.6789 32.23C18.8201 29.4957 20.2207 26.8717 21.621 24.2483C23.7814 20.201 25.9411 16.1549 27.1467 11.7069C27.9495 8.74477 28.5165 4.79065 25.2514 3.07963ZM15.6342 17.9717C15.6251 17.9489 15.6164 17.9262 15.6077 17.9034C15.6292 17.8871 15.6502 17.8705 15.6709 17.8531L15.6342 17.9717ZM10.5021 13.6575L10.468 13.4865C10.1819 13.0763 9.88804 12.6715 9.58651 12.2724C9.93763 13.0341 10.3036 13.7888 10.6822 14.5374C10.6188 14.2449 10.5604 13.9512 10.5021 13.6575ZM15.9759 27.3289C16.0911 27.7045 16.2059 28.0803 16.32 28.456C15.9517 28.0816 15.5883 27.7025 15.2331 27.3161C15.4698 27.4053 15.7288 27.4015 15.9759 27.3289ZM24.9512 9.38518C25.2185 7.9774 25.3947 5.93539 23.7268 5.33914C23.5629 5.28054 23.3946 5.23853 23.224 5.21129C23.3278 5.4976 23.3492 5.82207 23.2479 6.14792C22.3507 9.03369 21.5825 11.9535 20.9401 14.9007C21.8504 13.1825 22.8598 11.517 24.01 9.93045C24.2728 9.5681 24.6103 9.40875 24.9493 9.39475C24.9497 9.39164 24.9504 9.38824 24.9512 9.38518ZM18.7643 7.93847C18.3222 8.98849 18.0015 10.1102 17.6891 11.2028C17.5684 11.6249 17.449 12.0425 17.3243 12.4501L17.2786 12.5993L17.2786 12.5994C17.1787 12.9255 17.079 13.2514 16.9794 13.5776C17.1796 12.7622 17.3838 11.9484 17.6039 11.139C17.8927 10.0773 18.2315 8.94457 18.7643 7.93847ZM6.07902 12.5211C6.98507 15.6353 8.7472 18.6237 10.5312 21.3091C11.7084 23.0807 13.0002 24.7799 14.399 26.3849C12.3995 23.119 10.405 19.8439 8.63719 16.4455C7.7111 14.6655 6.84824 12.8521 6.08762 10.9952C5.99601 10.7717 5.89041 10.5347 5.78063 10.2882C5.72716 10.1682 5.6727 10.046 5.61838 9.922C5.65338 10.8051 5.83771 11.6914 6.07902 12.5211Z" fill="white"/>
</svg>
