<svg width="215" height="203" viewBox="0 0 215 203" fill="none" xmlns="http://www.w3.org/2000/svg">
<path fill-rule="evenodd" clip-rule="evenodd" d="M83.4278 153.458C265.128 181.061 187.784 -7.15497 78.9305 40.4302C51.9283 46.9268 5.79882 86.5529 13.6737 113.186C21.5485 139.819 41.4845 146.749 83.4278 153.458Z" fill="#B15587"/>
<path fill-rule="evenodd" clip-rule="evenodd" d="M122.709 84.2487V61.5687H118.209V71.2287H118.149C117.129 69.8187 115.389 69.3087 113.529 69.3087C109.389 69.3087 106.869 73.0287 106.869 77.0787C106.869 81.4887 109.719 84.6087 114.039 84.6087C116.079 84.6087 117.819 83.3787 118.509 82.3287H118.569V84.2487H122.709ZM99.3093 65.0787C99.3093 63.6387 100.479 62.4687 101.919 62.4687C103.359 62.4687 104.529 63.6387 104.529 65.0787C104.529 66.5187 103.359 67.6887 101.919 67.6887C100.479 67.6887 99.3093 66.5187 99.3093 65.0787ZM78.6993 63.0087V84.2487H83.3793V74.1687L92.0193 84.2487H98.5593L88.2993 72.8787L97.7493 63.0087H91.6293L83.3793 71.8287V63.0087H78.6993ZM99.6693 69.6687V84.2487H104.169V69.6687H99.6693ZM118.569 76.9587C118.569 74.7687 117.219 73.2687 114.969 73.2687C112.719 73.2687 111.369 74.7687 111.369 76.9587C111.369 79.1487 112.719 80.6487 114.969 80.6487C117.219 80.6487 118.569 79.1487 118.569 76.9587ZM134.559 73.9587L137.319 71.2287C135.969 69.7887 133.839 69.3087 131.919 69.3087C128.859 69.3087 125.799 70.8087 125.799 74.2287C125.799 77.5937 128.589 78.1906 130.786 78.6606C132.213 78.9658 133.389 79.2175 133.389 80.1387C133.389 80.9187 132.369 81.1887 131.349 81.1887C129.999 81.1887 129.009 80.6187 128.169 79.5987L125.439 82.6287C126.879 84.0987 129.129 84.6087 131.169 84.6087C134.289 84.6087 137.889 83.5287 137.889 79.8087C137.889 76.3909 135.011 75.7719 132.799 75.2962C131.419 74.9995 130.299 74.7586 130.299 73.9287C130.299 73.0587 131.199 72.7287 131.949 72.7287C133.029 72.7287 133.899 73.1487 134.559 73.9587ZM44.3643 113.249V92.0087H52.2543C56.6643 92.0087 60.3243 93.4187 60.3243 98.4587C60.3243 103.439 56.9343 104.969 52.4643 104.969H49.0443V113.249H44.3643ZM49.0443 101.009V95.9687H51.4443C53.2443 95.9687 55.4643 96.2687 55.4643 98.4587C55.4643 100.439 53.8143 101.009 52.1643 101.009H49.0443ZM71.8443 113.249V111.419H71.7843C70.7943 112.979 68.9943 113.609 67.1643 113.609C64.4343 113.609 61.9743 112.049 61.9743 109.109C61.9743 104.069 68.0943 103.979 71.8443 103.979C71.8443 102.389 70.5243 101.369 68.9643 101.369C67.4943 101.369 66.2643 102.029 65.3043 103.109L62.9043 100.649C64.5543 99.0887 66.9543 98.3087 69.3243 98.3087C74.5743 98.3087 75.9843 100.979 75.9843 105.839V113.249H71.8443ZM70.7343 106.859H71.8443V107.819C71.8443 109.619 70.1943 110.549 68.4243 110.549C67.4343 110.549 66.2943 110.039 66.2943 108.959C66.2943 106.979 69.3543 106.859 70.7343 106.859ZM78.8643 113.249V98.6687H83.3643V113.249H78.8643ZM81.1143 91.4687C79.6743 91.4687 78.5043 92.6387 78.5043 94.0787C78.5043 95.5187 79.6743 96.6887 81.1143 96.6887C82.5543 96.6887 83.7243 95.5187 83.7243 94.0787C83.7243 92.6387 82.5543 91.4687 81.1143 91.4687ZM86.6043 113.249V98.6687H90.9243V100.649H90.9843C91.5843 99.5087 93.0543 98.3087 95.2443 98.3087C99.8043 98.3087 100.644 101.309 100.644 105.209V113.249H96.1443V106.109C96.1443 104.429 96.1143 102.269 93.8043 102.269C91.4643 102.269 91.1043 104.099 91.1043 105.989V113.249H86.6043ZM113.754 102.269V98.6687H109.794V94.3487H105.294V98.6687H102.414V102.269H105.294V109.199C105.294 112.379 107.604 113.609 110.604 113.609C111.654 113.609 112.764 113.519 113.754 113.159V109.409C113.364 109.769 112.404 109.829 111.924 109.829C109.974 109.829 109.794 108.689 109.794 107.129V102.269H113.754ZM125.424 113.249V92.0087H130.104V113.249H125.424ZM133.794 98.6687V113.249H138.294V105.989C138.294 104.099 138.654 102.269 140.994 102.269C143.304 102.269 143.334 104.429 143.334 106.109V113.249H147.834V105.209C147.834 101.309 146.994 98.3087 142.434 98.3087C140.244 98.3087 138.774 99.5087 138.174 100.649H138.114V98.6687H133.794ZM163.854 100.259L160.884 103.379C160.434 102.749 159.594 102.269 158.664 102.269C156.414 102.269 155.064 103.769 155.064 105.959C155.064 108.149 156.414 109.649 158.664 109.649C159.654 109.649 160.374 109.139 160.884 108.539L163.854 111.659C162.444 113.099 160.374 113.609 158.664 113.609C154.164 113.609 150.564 110.609 150.564 105.959C150.564 101.309 154.164 98.3087 158.664 98.3087C160.374 98.3087 162.444 98.8187 163.854 100.259ZM168.324 107.909C166.794 107.909 165.564 109.139 165.564 110.669C165.564 112.199 166.794 113.429 168.324 113.429C169.854 113.429 171.084 112.199 171.084 110.669C171.084 109.139 169.854 107.909 168.324 107.909ZM62.0543 136.609L63.1143 135.889C63.6143 136.869 64.7143 137.409 65.7943 137.409C66.8343 137.409 67.9143 136.769 67.9143 135.709C67.9143 134.542 66.7582 134.287 65.508 134.011C64.0364 133.686 62.4343 133.332 62.4343 131.429C62.4343 129.629 64.0743 128.769 65.5943 128.769C67.0943 128.769 68.2543 129.329 68.8543 130.509L67.7743 131.149C67.3143 130.309 66.6743 129.849 65.5943 129.849C64.7343 129.849 63.6343 130.369 63.6343 131.329C63.6343 132.453 64.7431 132.679 65.9632 132.928C67.4555 133.233 69.1143 133.571 69.1143 135.629C69.1143 137.529 67.5343 138.489 65.7743 138.489C64.1943 138.489 62.7743 137.889 62.0543 136.609ZM71.8143 129.009V138.249H73.0143V129.009H71.8143ZM71.5143 125.349C71.5143 124.849 71.9143 124.449 72.4143 124.449C72.9143 124.449 73.3143 124.849 73.3143 125.349C73.3143 125.849 72.9143 126.249 72.4143 126.249C71.9143 126.249 71.5143 125.849 71.5143 125.349ZM76.4143 131.609V138.249H77.6143V133.629C77.6143 131.089 79.0343 129.849 80.8143 129.849C82.7143 129.849 83.1343 131.309 83.1343 132.809V138.249H84.3343V132.749C84.3343 130.729 83.6943 128.769 80.8143 128.769C79.3143 128.769 78.1343 129.609 77.6543 130.629H77.5943C77.5566 130.459 77.5367 129.777 77.5178 129.131V129.131V129.131L77.5178 129.131L77.5143 129.009H76.3143C76.3143 129.228 76.3351 129.647 76.3578 130.103C76.3847 130.645 76.4143 131.239 76.4143 131.609ZM94.3543 136.129L95.2743 136.889C94.3743 137.969 93.1943 138.489 91.8743 138.489C89.0343 138.489 87.0143 136.449 87.0143 133.629C87.0143 130.809 89.0343 128.769 91.8743 128.769C93.2143 128.769 94.4143 129.349 95.3143 130.369L94.3543 131.089C93.6543 130.329 92.8343 129.849 91.8743 129.849C89.6143 129.849 88.2143 131.549 88.2143 133.629C88.2143 135.709 89.6143 137.409 91.8743 137.409C92.8743 137.409 93.7343 136.889 94.3543 136.129ZM105.314 136.509L104.434 135.769C103.834 136.769 102.554 137.409 101.334 137.409C98.5343 137.409 97.8343 134.929 97.8343 133.929H105.594V133.089C105.594 130.949 104.094 128.769 101.254 128.769C98.5543 128.769 96.6343 130.849 96.6343 133.609C96.6343 136.469 98.4943 138.489 101.314 138.489C102.954 138.489 104.374 137.909 105.314 136.509ZM97.8343 132.849H104.394C104.394 131.209 102.974 129.849 101.194 129.849C98.5743 129.849 97.8343 132.369 97.8343 132.849ZM117.094 125.769V138.249H118.294V124.089H117.274L113.774 126.949L114.514 127.869L117.074 125.769H117.094ZM125.454 138.249L129.314 132.009H129.274C128.794 132.409 127.854 132.609 127.174 132.609C124.654 132.609 122.834 130.689 122.834 128.249C122.834 125.689 124.794 123.849 127.474 123.849C130.154 123.849 132.114 125.689 132.114 128.249C132.114 129.689 131.413 130.864 130.86 131.793L130.814 131.869L126.974 138.249H125.454ZM130.794 128.249C130.794 130.089 129.314 131.569 127.474 131.569C125.634 131.569 124.154 130.089 124.154 128.249C124.154 126.289 125.514 124.929 127.474 124.929C129.434 124.929 130.794 126.289 130.794 128.249ZM133.994 127.529C133.994 125.329 135.674 123.849 137.874 123.849C140.074 123.849 141.754 125.329 141.754 127.529C141.754 128.849 140.874 130.269 139.494 130.649V130.669C141.294 131.049 142.254 132.609 142.254 134.309C142.254 136.849 140.374 138.489 137.874 138.489C135.374 138.489 133.494 136.849 133.494 134.309C133.494 132.609 134.454 131.049 136.254 130.669V130.649C134.874 130.269 133.994 128.849 133.994 127.529ZM137.874 130.129C136.354 130.129 135.314 128.949 135.314 127.529C135.314 125.969 136.414 124.929 137.874 124.929C139.334 124.929 140.434 125.969 140.434 127.529C140.434 128.949 139.394 130.129 137.874 130.129ZM134.814 134.309C134.814 136.009 136.014 137.409 137.874 137.409C139.734 137.409 140.934 136.009 140.934 134.309C140.934 132.449 139.574 131.209 137.874 131.209C136.174 131.209 134.814 132.449 134.814 134.309ZM143.894 136.849V138.249H152.654V137.169H145.214L149.634 132.629C151.094 131.149 152.554 129.669 152.554 127.469C152.554 125.189 150.654 123.849 148.474 123.849C146.294 123.849 144.634 124.929 144.174 127.109L145.574 127.249C145.874 125.869 146.954 124.929 148.414 124.929C150.034 124.929 151.234 125.929 151.234 127.569C151.234 129.089 150.154 130.249 149.214 131.229L143.894 136.849Z" fill="white"/>
</svg>
