<svg width="167" height="556" viewBox="0 0 167 556" fill="none" xmlns="http://www.w3.org/2000/svg">
<path opacity="0.219145" fill-rule="evenodd" clip-rule="evenodd" d="M276.849 17.5385C340.339 137.369 234.584 161.54 196.508 108.54C187.898 95.0724 184.677 77.3417 181.697 60.9325C176.496 32.2954 172.025 7.68292 140.912 16.7803C119.5 23.0411 115.586 44.4384 126.966 61.3637C154.967 90.3066 175.973 117.919 166.819 144.224C143.052 207.786 97.2325 198.672 61.0502 189.404C60.9104 188.851 60.7499 188.297 60.5688 187.743C57.3867 178.009 44.6583 174.765 35.112 178.009C33.1134 179.028 31.1148 180.687 29.5105 182.785C26.8504 182.637 24.3949 182.731 22.1766 183.142C-9.28881 188.967 -7.94035 229.078 30.5198 224.583C52.8087 221.442 80.7877 226.763 112.703 234.308C233.305 262.035 193.129 361.215 159.947 443.129L159.947 443.129C152.232 462.175 144.895 480.288 140.045 496.352C119.576 576.597 185.993 553.802 196.025 530.616C199.172 519.429 198.782 509.276 198.336 497.655C197.608 478.712 196.73 455.868 210.782 418.285C217.755 395.994 229.969 368.794 252.685 355.401C301.177 327.72 328.75 366.915 323.981 408.815C322.77 422.825 321.388 436.231 320.088 448.858C317.208 476.806 314.722 500.937 315.341 519.356C323.685 560.798 363.899 562.541 382.68 546.923C407.187 524.842 395.34 502.188 381.184 475.12C363.304 440.929 341.741 399.697 385.114 343.683C394.718 330.748 414.375 318.25 437.114 328.478C450.361 335.966 457.87 349.719 466.57 365.654C470.795 373.391 475.301 381.643 480.88 389.942C520.711 449.181 594.956 383.59 545.971 350.657C536.87 343.63 526.196 340.104 515.401 336.538C496.105 330.164 476.418 323.661 464.621 296.807C450.61 270.524 462.823 243.325 484.663 226.813C506.339 206.513 527.882 206.288 546.386 206.094C559.197 205.961 570.552 205.842 579.487 199.087C620.984 170.076 572.854 116.639 529.175 149.663C518.008 158.283 507.045 165.168 496.361 170.51C496.516 168.788 496.516 166.909 496.516 165.03C493.334 158.541 486.969 158.541 480.605 158.541C477.423 161.786 474.241 168.275 477.423 174.764C477.423 175.868 478.159 176.971 479.38 177.819C384.267 212.13 316.113 125.124 333.278 65.1729C373.361 -74.8154 232.184 -70.6658 276.849 17.5385ZM455.148 9.28412C426.509 22.263 413.781 54.7102 426.509 83.9126C439.238 113.115 471.059 126.094 499.698 113.115C528.337 100.136 541.065 64.4443 528.337 38.4866C515.608 9.28412 483.787 -3.69475 455.148 9.28412ZM6.47233 307.798C-3.07397 285.085 6.47233 262.372 25.5649 252.638C47.8396 242.903 70.1143 252.638 79.6606 272.106C89.2069 294.819 79.6606 320.777 60.568 327.266C38.2933 337 16.0186 327.266 6.47233 307.798ZM60.5682 83.9125C54.204 87.1572 54.204 93.6466 54.204 100.136C57.3861 103.381 63.7503 106.625 70.1145 103.381C73.2966 100.136 76.4787 93.6466 73.2966 90.4019C70.1145 83.9125 66.9324 80.6678 60.5682 83.9125ZM493.334 288.33C490.152 291.574 486.97 294.819 490.152 298.064C490.152 304.553 496.516 304.553 499.698 304.553C502.88 301.308 506.062 298.064 502.88 294.819C502.88 288.33 496.516 288.33 493.334 288.33ZM566.522 298.064C563.34 294.819 566.522 288.33 569.704 285.085C576.068 281.84 582.432 285.085 585.614 291.574C588.796 294.819 585.614 301.308 579.25 304.553C576.068 307.798 569.704 304.553 566.522 298.064ZM401.053 122.849C394.689 126.094 391.507 135.828 394.689 142.317C397.871 148.807 404.235 152.052 413.782 148.807C420.146 145.562 423.328 135.828 420.146 129.338C416.964 122.849 407.417 119.604 401.053 122.849Z" fill="#EF842F"/>
</svg>
