<svg width="343" height="441" viewBox="0 0 343 441" fill="none" xmlns="http://www.w3.org/2000/svg">
<path opacity="0.219145" fill-rule="evenodd" clip-rule="evenodd" d="M-69.8631 -219.321C9.51648 -72.3958 -122.705 -42.7591 -170.311 -107.744C-181.077 -124.256 -185.103 -145.996 -188.829 -166.115C-195.332 -201.227 -200.921 -231.405 -239.822 -220.251C-266.592 -212.574 -271.486 -186.339 -257.257 -165.586C-222.249 -130.099 -195.985 -96.2431 -207.431 -63.9902C-229.594 -5.86084 -267.098 2.69376 -303.499 -1.42758C-303.731 -3.26862 -304.16 -5.14032 -304.784 -7.01205C-308.762 -18.9472 -324.676 -22.9256 -336.612 -18.9472C-340.017 -17.2446 -343.422 -14.0847 -345.58 -10.0912C-362.641 -14.427 -377.637 -18.2042 -388.273 -16.2733C-427.614 -9.13129 -425.928 40.0497 -377.842 34.5388C-349.975 30.6867 -314.993 37.2108 -275.091 46.4625C-124.305 80.4581 -174.536 202.063 -216.022 302.5C-225.668 325.852 -234.841 348.06 -240.905 367.756C-266.497 466.146 -183.457 438.196 -170.915 409.767C-166.98 396.051 -167.468 383.603 -168.026 369.355C-168.937 346.128 -170.034 318.119 -152.465 272.038C-143.747 244.706 -128.477 211.357 -100.075 194.935C-39.4467 160.996 -4.9726 209.052 -10.9354 260.426C-12.4498 277.605 -14.1766 294.042 -15.8031 309.525C-19.4029 343.791 -22.5112 373.379 -21.737 395.962C-11.3057 446.774 38.9731 448.912 62.4539 429.763C93.0954 402.689 78.2829 374.912 60.5847 341.724C38.2293 299.802 11.2696 249.247 65.4973 180.568C77.505 164.709 102.082 149.384 130.512 161.925C147.074 171.106 156.463 187.969 167.34 207.506C172.622 216.993 178.255 227.111 185.232 237.286C235.031 309.919 327.857 229.498 266.613 189.118C255.234 180.503 241.889 176.18 228.392 171.807C204.266 163.992 179.653 156.018 164.904 123.093C147.386 90.8675 162.656 57.5179 189.961 37.2721C217.062 12.3821 243.996 12.1061 267.132 11.8691C283.149 11.705 297.346 11.5595 308.517 3.27686C360.399 -32.2938 300.224 -97.8128 245.613 -57.3213C238.491 -51.9302 231.435 -47.0925 224.458 -42.7771C223.112 -42.8175 221.745 -42.8175 220.378 -42.8175C219.21 -41.6499 218.043 -40.1397 217.076 -38.3874C81.0724 39.2383 -22.7532 -80.6271 0.688995 -160.916C50.8036 -332.557 -125.707 -327.469 -69.8631 -219.321ZM188.55 -225.823C152.743 -209.909 136.829 -170.126 152.743 -134.32C168.657 -98.5148 208.442 -82.6013 244.249 -98.5148C280.055 -114.428 295.969 -158.19 280.055 -190.017C264.141 -225.823 224.356 -241.736 188.55 -225.823ZM-372.418 140.188C-384.353 112.339 -372.418 84.4906 -348.547 72.5555C-320.698 60.6204 -292.848 72.5555 -280.913 96.4258C-268.977 124.274 -280.913 156.101 -304.784 164.058C-332.633 175.993 -360.483 164.058 -372.418 140.188ZM-304.784 -134.32C-312.741 -130.342 -312.741 -122.385 -312.741 -114.428C-308.762 -110.45 -300.805 -106.472 -292.848 -110.45C-288.87 -114.428 -284.891 -122.385 -288.87 -126.363C-292.848 -134.32 -296.827 -138.299 -304.784 -134.32ZM236.292 116.318C232.313 120.296 228.335 124.274 232.313 128.253C232.313 136.21 240.27 136.21 244.249 136.21C248.227 132.231 252.206 128.253 248.227 124.274C248.227 116.318 240.27 116.318 236.292 116.318ZM327.797 128.253C323.819 124.274 327.797 116.318 331.776 112.339C339.733 108.361 347.69 112.339 351.668 120.296C355.647 124.274 351.668 132.231 343.711 136.21C339.733 140.188 331.776 136.21 327.797 128.253ZM120.915 -86.5796C112.958 -82.6013 108.98 -70.6661 112.958 -62.7094C116.937 -54.7526 124.894 -50.7742 136.829 -54.7526C144.786 -58.731 148.765 -70.6661 144.786 -78.6229C140.808 -86.5796 128.872 -90.558 120.915 -86.5796Z" fill="#B15587"/>
</svg>
