<svg width="1366" height="809" viewBox="0 0 1366 809" fill="none" xmlns="http://www.w3.org/2000/svg">
<path fill-rule="evenodd" clip-rule="evenodd" d="M715 5.93542C715 8.69685 712.538 10.9354 709.5 10.9354C706.462 10.9354 704 8.69685 704 5.93542C704 3.174 706.462 0.935425 709.5 0.935425C712.538 0.935425 715 3.174 715 5.93542ZM466 62.4999C505.649 66.4919 544.757 67.4227 583.454 66.2053C586.24 65.2332 589.108 64.1841 592.109 63.086C603.703 58.8438 617.29 53.8726 635.895 49.8027C657.311 45.118 681.175 49.9882 704.778 56.2425C754.782 50.0066 804.309 41.7167 853.653 33.4572C958.111 15.9728 1061.75 -1.37503 1167.37 1.18851C1362.74 5.93354 1540.97 139.774 1515.58 367.183C1518.01 416.786 1510.03 471.791 1489.18 531.729C1360.39 902.064 962.211 813.606 698.977 755.126C679.676 750.838 661.1 746.711 643.409 742.938C597.128 733.069 531.844 730.456 459.103 727.544H459.102H459.102H459.101H459.1C393.8 724.93 322.491 722.076 253.527 713.516C250.042 717.972 244.827 720.803 239 720.803C231.437 720.803 224.906 716.035 221.848 709.134C208.256 707.046 194.808 704.698 181.572 702.045C184.809 703.749 187 707.032 187 710.803C187 716.326 182.299 720.803 176.5 720.803C170.701 720.803 166 716.326 166 710.803C166 705.552 170.25 701.246 175.653 700.835C17.1765 667.803 -109.233 589.696 -87.5771 390.628C-89.0143 362.166 -86.8222 330.686 -80.4929 295.854C-27.644 5.91394 229.183 35.4724 416.468 57.0272C433.633 59.0027 450.214 60.911 466 62.4999ZM697 28.3027C697 35.7585 690.508 41.8027 682.5 41.8027C674.492 41.8027 668 35.7585 668 28.3027C668 20.8468 674.492 14.8027 682.5 14.8027C690.508 14.8027 697 20.8468 697 28.3027ZM725.5 47.8027C731.299 47.8027 736 43.3255 736 37.8027C736 32.2798 731.299 27.8027 725.5 27.8027C719.701 27.8027 715 32.2798 715 37.8027C715 43.3255 719.701 47.8027 725.5 47.8027ZM1345 784.303C1345 787.893 1341.19 790.803 1336.5 790.803C1331.81 790.803 1328 787.893 1328 784.303C1328 780.713 1331.81 777.803 1336.5 777.803C1341.19 777.803 1345 780.713 1345 784.303Z" fill="#E09EC5"/>
</svg>
