<svg width="660" height="650" viewBox="0 0 660 650" fill="none" xmlns="http://www.w3.org/2000/svg">
<path fill-rule="evenodd" clip-rule="evenodd" d="M359.752 527.164C289.806 439.044 360.914 408.956 400.109 447.273C423.93 472.256 426.137 530.346 458.228 514.459C472.415 507.192 471.229 486.59 459.065 476.294C434.062 453.845 412.944 436.291 414.798 412.48C421.542 338.513 489.452 374.792 511.747 366.677C534.043 358.562 524.409 326.312 497.722 333.922C481 340.008 457.523 350.657 435.899 337.494C421.878 327.874 416.3 306.768 422.885 295.958C437.239 271.803 487.914 272.289 495.171 240.201C497.871 224.495 484.861 206.094 473.543 203.903C455.3 200.027 446.35 215.904 439.765 226.715C429.127 249.516 409.876 277.556 375.416 275.375C340.957 273.194 338.079 236.382 344.155 206.827C350.907 179.13 362.896 160.043 362.722 130.66C363.386 63.1124 318.459 89.981 317.111 109.401C315.257 133.213 333.165 147.728 328.951 199.741C327.603 219.162 323.216 241.792 309.198 255.307C279.981 284.871 252.95 256.85 248.214 220.714C241.619 185.254 240.093 152.157 230.799 132.403C218.632 98.9721 190.592 102.868 179.109 117.564C147.192 162.834 254.289 191.16 216.637 278.48C210.727 291.148 201.101 305.168 182.182 299.434C165.12 293.024 155.15 271.413 137.749 252.507C97.8774 212.332 58.8688 272.803 97.5539 292.376C121.035 304.863 147.723 297.253 169.18 327.303C182.19 345.704 179.66 367.658 167.671 386.745C147.237 417.318 116.83 403.146 105.346 417.842C79.8452 446.054 118.194 476.265 150.621 449.74C167.173 437.406 187.436 400.584 218.018 444.139C246.571 482.123 210.768 522.497 205.534 537.022C202.835 552.728 233.072 560.652 232.392 535.66C233.74 516.24 231.201 491.924 252.145 480.094C281.702 463.026 319.035 478.885 324.277 510.63C326.645 528.698 325.131 565.005 344.221 576.987C363.987 590.826 388.982 567.005 359.752 527.164Z" fill="#E8C939"/>
<path fill-rule="evenodd" clip-rule="evenodd" d="M530.331 383.049C536.075 387.269 537.597 397.231 533.375 402.975C527.296 409.394 517.33 410.918 511.586 406.699C505.166 400.622 503.644 390.66 509.724 384.24C513.946 378.497 523.912 376.973 530.331 383.049Z" fill="#E8C939"/>
<path fill-rule="evenodd" clip-rule="evenodd" d="M118.004 354.343C129.492 362.781 131.184 378.992 122.74 390.478C112.438 402.641 96.2227 404.337 84.7349 395.898C72.5712 385.602 70.8791 369.391 79.3229 357.905C89.6245 345.742 105.84 344.047 118.004 354.343Z" fill="#E8C939"/>
<path fill-rule="evenodd" clip-rule="evenodd" d="M543.976 171.958C557.998 181.578 561.042 201.503 550.74 213.666C538.581 226.505 520.507 228.877 508.343 218.581C494.322 208.961 493.811 190.217 503.437 176.197C513.739 164.034 531.812 161.662 543.976 171.958Z" fill="#E8C939"/>
</svg>
