<svg width="456" height="1001" viewBox="0 0 456 1001" fill="none" xmlns="http://www.w3.org/2000/svg">
<path fill-rule="evenodd" clip-rule="evenodd" d="M472.49 209.134C551.87 356.06 419.648 385.696 372.042 320.712C361.277 304.199 357.25 282.46 353.524 262.34C347.021 227.228 341.432 197.05 302.532 208.205C275.761 215.881 270.868 242.116 285.096 262.869C320.105 298.356 346.368 332.212 334.922 364.465C312.759 422.594 275.256 431.149 238.855 427.028C238.622 425.187 238.194 423.315 237.57 421.443C233.591 409.508 217.677 405.53 205.742 409.508C202.337 411.211 198.931 414.371 196.773 418.364C179.712 414.028 164.717 410.251 154.08 412.182C114.74 419.324 116.426 468.505 164.512 462.994C192.379 459.142 227.36 465.666 267.262 474.918C418.048 508.913 367.818 630.519 326.332 730.955C316.686 754.307 307.512 776.515 301.448 796.212C275.857 894.601 358.896 866.651 371.439 838.223C375.373 824.506 374.885 812.058 374.327 797.81C373.417 774.583 372.319 746.574 389.889 700.494C398.607 673.162 413.877 639.812 442.279 623.39C502.907 589.451 537.381 637.507 531.418 688.882C529.904 706.06 528.177 722.498 526.55 737.98C522.951 772.246 519.842 801.834 520.616 824.418C531.048 875.23 581.327 877.367 604.807 858.218C635.449 831.144 620.636 803.368 602.938 770.179C580.583 728.258 553.623 677.702 607.851 609.023C619.859 593.164 644.436 577.839 672.865 590.381C689.427 599.561 698.816 616.424 709.694 635.961C714.976 645.449 720.609 655.566 727.585 665.741C777.384 738.375 870.211 657.954 808.966 617.573C797.587 608.958 784.242 604.635 770.745 600.263C746.62 592.447 722.007 584.474 707.257 551.548C689.739 519.323 705.009 485.973 732.315 465.727C759.416 440.837 786.35 440.561 809.485 440.324C825.503 440.16 839.699 440.015 850.87 431.732C902.753 396.161 842.577 330.642 787.967 371.134C780.845 376.525 773.789 381.363 766.812 385.678C765.465 385.638 764.098 385.638 762.731 385.638C761.564 386.805 760.396 388.316 759.43 390.068C623.426 467.694 519.6 347.828 543.043 267.539C593.157 95.8984 416.647 100.986 472.49 209.134ZM730.903 202.632C695.097 218.546 679.183 258.33 695.097 294.135C711.011 329.941 750.796 345.854 786.602 329.941C822.409 314.027 838.323 270.265 822.409 238.438C806.495 202.632 766.71 186.719 730.903 202.632ZM169.936 568.643C158 540.795 169.936 512.946 193.806 501.011C221.656 489.076 249.505 501.011 261.441 524.881C273.376 552.73 261.441 584.557 237.57 592.513C209.72 604.449 181.871 592.513 169.936 568.643ZM237.57 294.135C229.613 298.113 229.613 306.07 229.613 314.027C233.591 318.005 241.548 321.984 249.505 318.005C253.484 314.027 257.462 306.07 253.484 302.092C249.505 294.135 245.527 290.157 237.57 294.135ZM778.645 544.773C774.667 548.751 770.688 552.73 774.667 556.708C774.667 564.665 782.624 564.665 786.602 564.665C790.581 560.686 794.559 556.708 790.581 552.73C790.581 544.773 782.624 544.773 778.645 544.773ZM870.151 556.708C866.172 552.73 870.151 544.773 874.129 540.795C882.086 536.816 890.043 540.795 894.022 548.751C898 552.73 894.022 560.686 886.065 564.665C882.086 568.643 874.129 564.665 870.151 556.708ZM663.269 341.876C655.312 345.854 651.333 357.789 655.312 365.746C659.29 373.703 667.247 377.681 679.183 373.703C687.14 369.724 691.118 357.789 687.14 349.832C683.161 341.876 671.226 337.897 663.269 341.876Z" fill="#9AB548"/>
<path d="M131.436 216.074C131.655 216.058 131.833 216.049 131.969 216.046C132.105 216.043 132.23 216.058 132.346 216.092C132.478 216.115 132.562 216.137 132.599 216.157C132.651 216.166 132.745 216.21 132.88 216.288C133.031 216.355 133.15 216.41 133.237 216.452C133.502 216.566 133.708 216.894 133.856 217.435C134.018 217.978 134.079 218.591 134.039 219.274C134.02 219.691 134.049 220.258 134.125 220.975C134.204 221.68 134.192 222.327 134.087 222.918C133.999 223.498 133.74 224.272 133.313 225.239C132.885 226.206 132.544 226.796 132.29 227.008C132.085 227.175 131.971 227.317 131.951 227.436C131.927 227.567 131.635 227.766 131.074 228.032C130.691 228.209 130.397 228.299 130.193 228.304C129.987 228.321 129.647 228.255 129.172 228.103C128.812 227.999 128.525 227.894 128.314 227.789C128.115 227.687 127.994 227.605 127.951 227.543C127.906 227.494 127.847 227.443 127.775 227.39C127.701 227.35 127.592 227.317 127.447 227.291C127.145 227.238 126.681 227.028 126.056 226.66C125.443 226.295 125.065 226.018 124.922 225.831C124.825 225.692 124.779 225.569 124.785 225.461C124.79 225.354 124.856 225.21 124.983 225.029C125.198 224.729 125.474 224.547 125.81 224.484C126.156 224.437 126.48 224.521 126.781 224.737C127.188 225.039 127.796 225.39 128.606 225.79C129.428 226.192 129.91 226.378 130.05 226.349C130.134 226.337 130.264 226.211 130.442 225.971C130.617 225.745 130.786 225.477 130.949 225.167C131.396 224.325 131.664 223.763 131.754 223.481C131.847 223.186 131.838 222.928 131.729 222.705C131.641 222.514 131.562 222.419 131.495 222.42C131.429 222.409 131.274 222.483 131.029 222.643C130.416 223.049 129.718 223.244 128.935 223.228C128.166 223.214 127.481 222.992 126.88 222.561C126.484 222.275 126.222 222.032 126.094 221.834C125.967 221.635 125.856 221.304 125.762 220.841C125.701 220.573 125.694 220.341 125.742 220.147C125.79 219.952 125.918 219.65 126.125 219.24C126.556 218.408 127.271 217.695 128.269 217.099C129.281 216.506 130.337 216.164 131.436 216.074ZM131.592 218.64C131.531 218.372 131.458 218.135 131.372 217.931C131.289 217.713 131.215 217.592 131.152 217.567C130.986 217.511 130.669 217.617 130.202 217.887C129.338 218.411 128.719 219.04 128.346 219.773C127.976 220.493 128.02 221.009 128.48 221.32C128.674 221.449 128.846 221.506 128.998 221.493C129.149 221.479 129.416 221.384 129.799 221.207C130.374 220.943 130.845 220.613 131.213 220.218L131.784 219.628L131.592 218.64ZM139.148 218.063C140.129 217.952 140.746 217.912 140.998 217.942C141.249 217.973 141.576 218.119 141.977 218.379C142.498 218.647 142.885 218.945 143.139 219.274C143.408 219.593 143.517 219.896 143.466 220.185C143.417 220.461 143.217 220.825 142.867 221.278C142.519 221.717 142.19 222.045 141.881 222.261C141.515 222.495 140.944 222.699 140.169 222.873C139.409 223.037 138.754 223.104 138.204 223.075C137.625 223.054 137.222 223.112 136.995 223.248C136.771 223.371 136.705 223.589 136.799 223.904C137.029 224.594 138.139 224.634 140.128 224.024C141.074 223.73 141.711 223.572 142.04 223.549C142.382 223.528 142.629 223.625 142.78 223.842C143.051 224.228 142.87 224.676 142.238 225.188C141.704 225.608 140.858 225.987 139.702 226.325C138.546 226.662 137.679 226.78 137.101 226.679C136.786 226.623 136.395 226.425 135.926 226.086C135.469 225.761 135.103 225.419 134.828 225.059C134.464 224.589 134.341 223.944 134.458 223.126C134.575 222.307 134.888 221.57 135.396 220.915C135.729 220.486 135.911 220.186 135.941 220.016C135.973 219.832 136.429 219.472 137.309 218.937C138.202 218.404 138.815 218.113 139.148 218.063ZM140.106 220.466C140.419 220.304 140.543 220.177 140.478 220.085C140.389 219.974 140.179 220.012 139.849 220.197C139.443 220.423 139.266 220.582 139.318 220.672C139.381 220.778 139.643 220.709 140.106 220.466ZM149.15 213.897C149.478 213.724 149.714 213.651 149.859 213.676C150.016 213.704 150.208 213.846 150.433 214.103C150.605 214.282 150.688 214.5 150.684 214.756C150.692 215.015 150.626 215.619 150.486 216.569L150.18 218.648L151.06 218.843C151.41 218.932 151.656 219.03 151.8 219.136C151.959 219.232 152.087 219.39 152.184 219.61C152.286 219.872 152.317 220.047 152.274 220.134C152.247 220.21 152.076 220.336 151.761 220.51C151.34 220.748 150.802 220.917 150.148 221.018C149.828 221.07 149.596 221.117 149.453 221.16C149.31 221.202 149.193 221.29 149.102 221.423C149.011 221.555 148.945 221.7 148.904 221.855C148.863 222.01 148.77 222.271 148.624 222.638C148.48 222.992 148.298 223.373 148.077 223.78C147.896 224.114 147.735 224.451 147.594 224.792C147.455 225.119 147.346 225.357 147.265 225.506C147.198 225.656 147.117 225.771 147.022 225.849C146.861 225.996 146.643 226.039 146.37 225.977C146.096 225.916 145.843 225.776 145.611 225.559C145.418 225.349 145.336 225.044 145.366 224.643C145.409 224.244 145.512 223.856 145.673 223.478C145.837 223.088 146.01 222.678 146.194 222.25C146.38 221.809 146.488 221.503 146.519 221.333C146.558 221.109 146.549 220.966 146.493 220.902C146.452 220.827 146.333 220.772 146.136 220.737C145.742 220.668 145.333 220.453 144.909 220.094C144.5 219.724 144.288 219.396 144.271 219.108C144.246 218.711 144.377 218.464 144.666 218.366C144.954 218.268 145.412 218.315 146.042 218.507C146.3 218.579 146.5 218.635 146.642 218.674C146.787 218.699 146.929 218.697 147.07 218.668C147.212 218.625 147.317 218.569 147.384 218.5C147.465 218.419 147.552 218.272 147.644 218.058C147.738 217.831 147.814 217.594 147.871 217.347C147.944 217.089 148.028 216.725 148.125 216.254C148.349 215.292 148.509 214.691 148.605 214.45C148.715 214.212 148.896 214.028 149.15 213.897ZM157.536 215.375C157.864 215.203 158.101 215.13 158.245 215.155C158.403 215.183 158.594 215.325 158.82 215.581C158.991 215.76 159.075 215.978 159.07 216.235C159.079 216.493 159.013 217.098 158.872 218.048L158.567 220.126L159.446 220.322C159.796 220.411 160.043 220.509 160.186 220.615C160.345 220.711 160.473 220.869 160.57 221.089C160.673 221.351 160.703 221.525 160.66 221.613C160.633 221.689 160.462 221.815 160.147 221.989C159.726 222.226 159.189 222.396 158.535 222.497C158.214 222.549 157.982 222.596 157.839 222.638C157.697 222.681 157.58 222.768 157.488 222.901C157.397 223.034 157.331 223.178 157.29 223.333C157.249 223.489 157.156 223.75 157.01 224.117C156.866 224.47 156.684 224.851 156.463 225.259C156.283 225.593 156.122 225.93 155.98 226.271C155.841 226.598 155.732 226.836 155.651 226.984C155.584 227.135 155.503 227.249 155.408 227.327C155.247 227.475 155.029 227.518 154.756 227.456C154.483 227.394 154.23 227.255 153.997 227.038C153.804 226.828 153.722 226.522 153.752 226.121C153.796 225.723 153.898 225.335 154.059 224.957C154.223 224.566 154.397 224.157 154.58 223.729C154.767 223.288 154.875 222.982 154.905 222.811C154.944 222.588 154.936 222.444 154.879 222.38C154.838 222.305 154.719 222.251 154.522 222.216C154.128 222.146 153.719 221.932 153.295 221.573C152.887 221.203 152.674 220.874 152.657 220.587C152.632 220.19 152.764 219.943 153.052 219.844C153.34 219.746 153.799 219.793 154.428 219.986C154.686 220.058 154.886 220.114 155.028 220.152C155.173 220.178 155.315 220.176 155.456 220.147C155.599 220.104 155.703 220.048 155.77 219.978C155.852 219.898 155.939 219.751 156.03 219.537C156.125 219.31 156.2 219.073 156.257 218.826C156.33 218.568 156.415 218.203 156.511 217.733C156.735 216.771 156.895 216.169 156.992 215.929C157.101 215.691 157.283 215.507 157.536 215.375ZM161.598 222.143C161.823 222.021 162.139 221.995 162.546 222.067C162.992 222.146 163.241 222.386 163.292 222.787C163.343 223.189 163.231 223.941 162.955 225.043C162.368 227.377 161.982 228.683 161.797 228.962C161.699 229.134 161.525 229.239 161.275 229.276C160.91 229.347 160.574 229.254 160.268 228.997C160.255 228.994 160.243 228.985 160.232 228.97C160.077 228.848 159.981 228.743 159.942 228.655C159.917 228.569 159.919 228.366 159.948 228.047C159.99 227.729 160.101 227.254 160.28 226.623C160.449 225.894 160.593 225.27 160.712 224.749C160.921 223.798 161.083 223.143 161.201 222.784C161.331 222.428 161.464 222.215 161.598 222.143ZM162.476 218.318C162.668 218.149 163.027 218.11 163.552 218.203C164.093 218.285 164.426 218.431 164.551 218.643C164.687 218.87 164.666 219.144 164.487 219.464C164.311 219.772 164.069 219.953 163.762 220.007C163.538 220.048 163.307 220.015 163.069 219.905C162.834 219.782 162.644 219.627 162.501 219.439C162.372 219.254 162.291 219.057 162.26 218.848C162.229 218.64 162.301 218.463 162.476 218.318ZM169.498 220.978C170.332 220.624 170.971 220.574 171.413 220.828C171.856 221.082 172.165 221.671 172.34 222.596C172.428 223.098 172.454 223.563 172.419 223.991C172.384 224.418 172.251 225.213 172.019 226.377C171.858 227.134 171.732 227.694 171.641 228.057C171.55 228.42 171.441 228.733 171.313 228.995C171.188 229.243 171.059 229.403 170.924 229.474C170.79 229.545 170.589 229.611 170.321 229.672C170.125 229.706 169.971 229.699 169.857 229.652C169.746 229.591 169.619 229.468 169.476 229.28C169.314 229.048 169.233 228.777 169.234 228.465C169.248 228.156 169.348 227.355 169.536 226.061C169.829 224.245 169.902 223.296 169.753 223.216C169.594 223.12 169.039 223.543 168.087 224.486C167.136 225.428 166.534 226.155 166.281 226.665C165.986 227.263 165.819 227.674 165.78 227.897C165.741 228.12 165.555 228.365 165.224 228.632C164.893 228.898 164.635 229.015 164.451 228.983C164.241 228.946 164.016 228.804 163.775 228.559C163.601 228.393 163.52 228.162 163.531 227.866C163.543 227.57 163.676 226.7 163.931 225.256C164.201 223.719 164.454 222.593 164.689 221.876C164.926 221.146 165.194 220.665 165.492 220.434C165.695 220.28 165.904 220.208 166.118 220.219C166.349 220.219 166.54 220.287 166.692 220.422C166.857 220.559 166.967 220.741 167.022 220.967C167.09 221.196 167.076 221.43 166.979 221.671C166.833 222.038 166.827 222.226 166.961 222.236C167.105 222.262 167.4 222.124 167.846 221.824C168.333 221.517 168.884 221.235 169.498 220.978ZM177.81 224.251C178.029 224.235 178.207 224.226 178.343 224.223C178.479 224.22 178.605 224.235 178.721 224.269C178.852 224.292 178.936 224.314 178.973 224.334C179.026 224.343 179.12 224.387 179.255 224.465C179.406 224.532 179.524 224.587 179.612 224.629C179.876 224.744 180.082 225.071 180.231 225.612C180.392 226.155 180.453 226.768 180.414 227.451C180.395 227.868 180.423 228.435 180.5 229.152C180.579 229.857 180.566 230.504 180.462 231.095C180.373 231.675 180.115 232.449 179.687 233.416C179.259 234.383 178.918 234.973 178.664 235.185C178.459 235.352 178.346 235.494 178.325 235.613C178.302 235.744 178.01 235.943 177.448 236.209C177.065 236.386 176.771 236.476 176.568 236.481C176.361 236.498 176.021 236.432 175.547 236.28C175.186 236.176 174.9 236.072 174.688 235.967C174.49 235.864 174.369 235.782 174.326 235.72C174.28 235.671 174.221 235.62 174.149 235.567C174.075 235.527 173.966 235.494 173.822 235.468C173.52 235.415 173.056 235.205 172.43 234.837C171.818 234.472 171.44 234.196 171.297 234.008C171.2 233.869 171.154 233.746 171.159 233.638C171.164 233.531 171.23 233.387 171.357 233.206C171.572 232.906 171.848 232.724 172.184 232.661C172.531 232.614 172.855 232.698 173.155 232.914C173.562 233.216 174.17 233.567 174.98 233.967C175.803 234.369 176.284 234.556 176.425 234.526C176.508 234.514 176.639 234.388 176.816 234.148C176.992 233.922 177.161 233.654 177.324 233.344C177.77 232.502 178.038 231.94 178.129 231.658C178.221 231.363 178.213 231.105 178.103 230.882C178.015 230.691 177.937 230.596 177.869 230.597C177.803 230.586 177.648 230.66 177.403 230.82C176.79 231.226 176.092 231.421 175.31 231.405C174.541 231.391 173.855 231.169 173.254 230.738C172.858 230.452 172.596 230.209 172.469 230.011C172.341 229.812 172.23 229.481 172.136 229.018C172.075 228.75 172.068 228.518 172.116 228.324C172.164 228.129 172.292 227.827 172.5 227.417C172.931 226.585 173.645 225.872 174.644 225.276C175.656 224.683 176.711 224.341 177.81 224.251ZM177.967 226.817C177.906 226.549 177.832 226.313 177.747 226.108C177.663 225.89 177.59 225.769 177.527 225.744C177.36 225.688 177.044 225.794 176.577 226.064C175.712 226.589 175.094 227.217 174.721 227.95C174.35 228.67 174.395 229.186 174.854 229.497C175.048 229.626 175.221 229.684 175.372 229.67C175.523 229.656 175.791 229.561 176.174 229.384C176.748 229.12 177.22 228.79 177.587 228.395L178.158 227.805L177.967 226.817ZM199.65 225.929C200.159 225.883 200.489 225.894 200.64 225.961C200.79 226.028 201.005 226.269 201.284 226.684C201.509 227.021 201.637 227.328 201.67 227.605C201.705 227.868 201.694 228.428 201.638 229.285C201.553 230.529 201.347 231.698 201.019 232.791C200.786 233.575 200.621 234.054 200.522 234.226C200.427 234.385 200.246 234.489 199.98 234.537C199.605 234.592 199.285 234.489 199.02 234.225C198.82 234.055 198.72 233.854 198.72 233.624C198.709 233.378 198.817 232.612 199.044 231.325C199.342 229.631 199.401 228.721 199.221 228.595C199.125 228.523 198.918 228.622 198.6 228.891C198.326 229.141 197.968 229.633 197.527 230.367C197.102 231.091 196.861 231.611 196.805 231.926C196.755 232.215 196.56 232.397 196.222 232.473C195.844 232.541 195.566 232.547 195.386 232.488C195.207 232.429 195.031 232.276 194.858 232.029C194.717 231.828 194.651 231.627 194.66 231.426C194.671 231.211 194.761 230.773 194.932 230.113C195.175 229.194 195.229 228.696 195.094 228.618C194.961 228.527 194.554 228.801 193.873 229.439C193.289 229.986 192.749 230.628 192.253 231.367C191.76 232.092 191.475 232.671 191.399 233.105C191.359 233.328 191.189 233.528 190.887 233.705C190.598 233.884 190.33 233.945 190.083 233.888C189.899 233.856 189.676 233.701 189.413 233.425C189.244 233.233 189.16 233.015 189.163 232.771C189.166 232.447 189.357 231.283 189.738 229.278C190.189 226.799 190.495 225.485 190.656 225.338C190.831 225.193 191.17 225.185 191.676 225.315C192.039 225.406 192.253 225.497 192.317 225.59C192.395 225.685 192.443 225.917 192.459 226.285C192.491 227.022 192.544 227.417 192.615 227.47C192.69 227.511 192.908 227.387 193.27 227.098C193.992 226.535 194.725 226.177 195.47 226.024C196.215 225.871 196.829 225.959 197.312 226.288C197.498 226.388 197.628 226.452 197.705 226.479C197.797 226.495 197.908 226.481 198.037 226.436C198.18 226.394 198.305 226.341 198.41 226.279C198.529 226.218 198.697 226.153 198.912 226.083C199.141 226.015 199.387 225.963 199.65 225.929ZM205.854 229.825C206.835 229.714 207.451 229.673 207.703 229.704C207.955 229.735 208.281 229.881 208.682 230.141C209.203 230.409 209.591 230.707 209.844 231.036C210.113 231.355 210.222 231.658 210.171 231.947C210.122 232.223 209.923 232.587 209.572 233.04C209.224 233.479 208.895 233.807 208.586 234.023C208.22 234.257 207.649 234.461 206.874 234.635C206.114 234.799 205.459 234.866 204.909 234.837C204.331 234.816 203.928 234.874 203.701 235.01C203.476 235.133 203.41 235.351 203.504 235.666C203.734 236.356 204.844 236.396 206.834 235.786C207.779 235.492 208.416 235.334 208.745 235.31C209.087 235.29 209.334 235.387 209.486 235.604C209.756 235.99 209.575 236.438 208.944 236.95C208.409 237.37 207.564 237.749 206.408 238.087C205.251 238.424 204.384 238.542 203.807 238.44C203.492 238.385 203.1 238.187 202.632 237.847C202.175 237.523 201.808 237.181 201.533 236.821C201.169 236.351 201.046 235.706 201.163 234.888C201.281 234.069 201.593 233.332 202.102 232.677C202.434 232.248 202.616 231.948 202.646 231.778C202.678 231.594 203.134 231.234 204.014 230.699C204.907 230.166 205.52 229.875 205.854 229.825ZM206.811 232.228C207.124 232.066 207.248 231.939 207.183 231.847C207.094 231.736 206.884 231.774 206.554 231.959C206.148 232.185 205.972 232.344 206.023 232.434C206.086 232.54 206.349 232.471 206.811 232.228ZM215.943 230.345C217.256 230.265 218.086 230.472 218.432 230.967C218.627 231.245 218.706 231.448 218.67 231.577C218.647 231.709 218.488 231.843 218.193 231.98C217.885 232.116 217.533 232.115 217.137 231.977C216.604 231.775 216.064 231.808 215.515 232.077C215.086 232.286 214.973 232.503 215.177 232.728C215.21 232.774 215.262 232.824 215.334 232.878C215.471 232.942 215.695 233.131 216.006 233.443C216.316 233.755 216.544 233.924 216.688 233.949C216.859 233.979 217.187 234.227 217.674 234.692C218.469 235.482 218.656 236.225 218.235 236.923C217.83 237.61 216.952 238.017 215.603 238.144C215.024 238.205 214.222 238.145 213.198 237.964C212.176 237.77 211.416 237.548 210.919 237.298C210.596 237.133 210.378 236.986 210.265 236.858C210.153 236.73 210.084 236.542 210.06 236.294C210.036 236.046 210.042 235.857 210.079 235.728C210.128 235.602 210.231 235.478 210.388 235.356C210.64 235.157 210.897 235.081 211.16 235.127C211.424 235.16 211.657 235.303 211.856 235.554C212.066 235.822 212.555 236.043 213.323 236.219C214.091 236.395 214.72 236.432 215.212 236.329C215.678 236.222 215.916 236.101 215.926 235.967C215.945 235.781 215.486 235.355 214.547 234.689C214.449 234.631 214.34 234.557 214.22 234.468C213.593 234.033 213.15 233.63 212.89 233.259C212.633 232.875 212.54 232.48 212.612 232.073C212.7 231.574 213.027 231.178 213.593 230.885C214.175 230.581 214.958 230.401 215.943 230.345ZM224.54 231.861C225.854 231.781 226.684 231.988 227.03 232.483C227.225 232.761 227.304 232.964 227.268 233.093C227.245 233.225 227.086 233.359 226.791 233.496C226.482 233.632 226.131 233.631 225.735 233.493C225.202 233.291 224.662 233.324 224.113 233.593C223.684 233.802 223.571 234.019 223.775 234.244C223.807 234.291 223.86 234.34 223.931 234.394C224.069 234.458 224.293 234.647 224.603 234.959C224.914 235.271 225.141 235.44 225.286 235.465C225.457 235.495 225.785 235.743 226.272 236.208C227.067 236.998 227.254 237.741 226.833 238.439C226.428 239.126 225.55 239.533 224.201 239.66C223.622 239.721 222.82 239.661 221.796 239.48C220.774 239.286 220.014 239.064 219.517 238.814C219.194 238.649 218.976 238.502 218.863 238.374C218.75 238.246 218.682 238.058 218.658 237.81C218.634 237.562 218.64 237.373 218.677 237.244C218.726 237.118 218.829 236.994 218.986 236.872C219.238 236.673 219.495 236.597 219.757 236.643C220.022 236.676 220.254 236.819 220.454 237.07C220.664 237.338 221.153 237.559 221.921 237.735C222.688 237.911 223.318 237.948 223.81 237.845C224.276 237.738 224.514 237.617 224.524 237.483C224.543 237.297 224.084 236.871 223.145 236.205C223.047 236.147 222.938 236.073 222.818 235.984C222.191 235.549 221.748 235.146 221.488 234.775C221.231 234.391 221.138 233.996 221.21 233.589C221.298 233.09 221.625 232.694 222.191 232.401C222.773 232.097 223.556 231.917 224.54 231.861ZM231.092 233.808C231.293 233.668 231.56 233.654 231.892 233.766C232.226 233.866 232.479 234.046 232.649 234.306C232.79 234.507 232.858 234.776 232.852 235.114C232.849 235.438 232.775 236.129 232.629 237.186C232.376 238.929 232.356 239.846 232.57 239.938C232.634 239.963 232.703 239.955 232.778 239.914C232.954 239.836 233.209 239.617 233.543 239.257C233.891 238.898 234.075 238.66 234.096 238.542C234.115 238.437 234.158 238.343 234.227 238.26C234.309 238.18 234.396 238.107 234.489 238.042C234.597 237.967 234.713 237.804 234.838 237.556C234.966 237.294 235.079 236.962 235.177 236.559C235.332 235.91 235.513 235.495 235.721 235.315C235.931 235.122 236.272 235.067 236.745 235.15C237.651 235.31 237.911 236.026 237.524 237.298C237.332 237.928 237.059 239.091 236.705 240.789C236.473 241.953 236.291 242.72 236.158 243.089C236.025 243.458 235.79 243.87 235.452 244.325C235.021 244.926 234.604 245.333 234.201 245.546C233.811 245.762 233.226 245.896 232.445 245.947C231.166 246.06 230.003 245.977 228.955 245.698C227.921 245.421 227.201 245.009 226.797 244.464C226.413 243.95 226.329 243.508 226.543 243.14C226.767 242.787 227.165 242.722 227.735 242.944C229.572 243.66 230.974 244.002 231.941 243.97C232.403 243.957 232.71 243.909 232.859 243.827C233.02 243.761 233.184 243.6 233.351 243.345C233.482 243.138 233.586 242.933 233.662 242.73C233.754 242.516 233.805 242.342 233.815 242.209C233.825 242.075 233.791 242.001 233.712 241.987C233.646 241.976 233.54 242.004 233.392 242.073C233.258 242.144 233.071 242.206 232.831 242.259C232.605 242.313 232.341 242.314 232.039 242.261C231.553 242.175 231.104 241.88 230.693 241.374C230.296 240.857 230.076 240.304 230.031 239.714C229.988 239.11 230.108 238.008 230.391 236.406C230.688 234.793 230.922 233.927 231.092 233.808ZM128.657 238.674C128.881 238.552 129.197 238.526 129.604 238.598C130.051 238.676 130.3 238.917 130.351 239.318C130.402 239.72 130.289 240.472 130.014 241.574C129.426 243.908 129.04 245.214 128.856 245.493C128.758 245.665 128.584 245.769 128.333 245.807C127.969 245.878 127.633 245.785 127.326 245.527C127.313 245.525 127.301 245.516 127.291 245.501C127.136 245.379 127.039 245.274 127.001 245.186C126.975 245.1 126.977 244.897 127.007 244.578C127.049 244.26 127.16 243.785 127.339 243.154C127.508 242.425 127.652 241.801 127.771 241.28C127.979 240.329 128.142 239.674 128.259 239.315C128.39 238.959 128.522 238.745 128.657 238.674ZM129.534 234.849C129.727 234.679 130.085 234.641 130.611 234.734C131.151 234.816 131.484 234.962 131.609 235.174C131.745 235.401 131.724 235.675 131.546 235.995C131.37 236.303 131.128 236.484 130.821 236.538C130.597 236.579 130.366 236.545 130.128 236.436C129.892 236.313 129.703 236.158 129.56 235.97C129.43 235.785 129.35 235.588 129.319 235.379C129.288 235.171 129.36 234.994 129.534 234.849ZM136.454 238.668C137.768 238.588 138.597 238.796 138.944 239.29C139.138 239.568 139.217 239.772 139.181 239.901C139.158 240.032 138.999 240.166 138.704 240.304C138.396 240.439 138.044 240.438 137.648 240.3C137.115 240.098 136.575 240.131 136.026 240.4C135.597 240.609 135.484 240.826 135.688 241.052C135.721 241.098 135.773 241.148 135.845 241.201C135.982 241.266 136.206 241.454 136.517 241.766C136.827 242.078 137.055 242.247 137.199 242.272C137.37 242.303 137.699 242.55 138.185 243.015C138.98 243.805 139.167 244.549 138.746 245.246C138.341 245.933 137.464 246.34 136.114 246.468C135.535 246.528 134.733 246.468 133.709 246.287C132.687 246.094 131.927 245.872 131.43 245.621C131.107 245.456 130.889 245.31 130.776 245.181C130.664 245.053 130.595 244.865 130.571 244.617C130.547 244.369 130.554 244.181 130.59 244.052C130.639 243.925 130.742 243.801 130.899 243.68C131.151 243.48 131.408 243.404 131.671 243.45C131.936 243.483 132.168 243.626 132.367 243.878C132.577 244.145 133.066 244.367 133.834 244.543C134.602 244.719 135.232 244.755 135.724 244.652C136.189 244.545 136.427 244.424 136.437 244.291C136.456 244.105 135.997 243.678 135.058 243.012C134.96 242.954 134.851 242.881 134.732 242.792C134.104 242.356 133.661 241.953 133.401 241.582C133.144 241.199 133.051 240.803 133.123 240.396C133.211 239.897 133.538 239.501 134.104 239.208C134.686 238.905 135.469 238.725 136.454 238.668ZM152.219 241.103C152.539 240.902 153.257 240.859 154.374 240.975C155.504 241.093 156.18 241.293 156.401 241.576C156.468 241.656 156.551 242.334 156.651 243.611C156.764 244.89 156.802 245.634 156.765 245.844C156.737 246.002 156.814 246.449 156.996 247.185C157.165 247.837 157.244 248.237 157.231 248.384C157.221 248.517 157.098 248.678 156.862 248.867C156.548 249.11 156.207 249.164 155.838 249.032C155.481 248.901 155.166 248.615 154.892 248.174L154.383 247.374L153.729 247.746C153.233 248.024 152.639 248.204 151.948 248.285C151.272 248.355 150.632 248.303 150.026 248.129C149.626 248.018 149.31 247.887 149.079 247.738C148.862 247.592 148.605 247.357 148.31 247.034C147.996 246.667 147.806 246.397 147.742 246.223C147.68 246.036 147.682 245.759 147.747 245.391C147.842 244.853 148.044 244.361 148.352 243.914C148.59 243.563 149.15 243.039 150.031 242.342C150.928 241.633 151.455 241.293 151.612 241.321C151.744 241.344 151.946 241.271 152.219 241.103ZM154.05 242.929C154.044 242.657 153.981 242.476 153.861 242.388C153.757 242.288 153.576 242.276 153.319 242.353C153.077 242.419 152.733 242.568 152.286 242.8C150.999 243.494 150.174 244.296 149.81 245.207C149.709 245.473 149.663 245.655 149.673 245.751C149.697 245.85 149.805 245.964 149.999 246.093C150.317 246.285 150.652 246.384 151.002 246.392C151.369 246.389 151.732 246.284 152.094 246.077C152.458 245.856 152.788 245.597 153.084 245.297C153.383 244.984 153.623 244.62 153.805 244.205C153.989 243.777 154.07 243.352 154.05 242.929ZM162.011 239.783C162.069 239.455 162.229 239.239 162.491 239.137C162.755 239.021 163.026 239.021 163.303 239.138C163.58 239.254 163.77 239.443 163.873 239.705C163.993 240.024 164.007 240.365 163.916 240.728C163.838 241.094 163.733 241.42 163.601 241.708C163.471 241.983 163.384 242.131 163.34 242.15C163.299 242.156 163.259 242.19 163.221 242.251C163.196 242.314 163.14 242.44 163.053 242.627C162.979 242.817 162.885 243.044 162.771 243.309C162.656 243.573 162.471 243.973 162.213 244.51C161.972 245.036 161.688 245.609 161.362 246.228L159.684 249.527C159.512 249.889 159.365 250.107 159.244 250.181C159.136 250.256 158.928 250.281 158.622 250.254C158.168 250.214 157.846 250.042 157.656 249.738C157.505 249.522 157.451 249.33 157.494 249.161C157.54 248.98 157.733 248.533 158.076 247.822C158.608 246.724 159.028 245.878 159.336 245.282C159.657 244.689 159.852 244.351 159.921 244.268C159.992 244.172 160.076 244.038 160.174 243.866C160.285 243.696 160.431 243.41 160.61 243.009C160.794 242.581 161.014 242.099 161.271 241.562C161.531 241.012 161.709 240.617 161.805 240.376C161.917 240.125 161.986 239.928 162.011 239.783ZM167.205 240.699C167.262 240.371 167.422 240.155 167.684 240.052C167.948 239.936 168.219 239.937 168.496 240.053C168.774 240.17 168.964 240.359 169.066 240.621C169.186 240.94 169.2 241.281 169.109 241.644C169.031 242.009 168.926 242.336 168.794 242.624C168.665 242.899 168.578 243.046 168.534 243.066C168.492 243.072 168.452 243.105 168.414 243.166C168.39 243.23 168.334 243.355 168.246 243.543C168.172 243.733 168.078 243.96 167.964 244.224C167.85 244.488 167.664 244.889 167.407 245.426C167.165 245.952 166.881 246.525 166.555 247.144L164.877 250.443C164.705 250.805 164.558 251.023 164.437 251.096C164.329 251.172 164.122 251.196 163.815 251.169C163.361 251.13 163.04 250.958 162.85 250.654C162.698 250.438 162.644 250.245 162.687 250.077C162.733 249.895 162.927 249.449 163.269 248.738C163.801 247.64 164.221 246.793 164.529 246.198C164.85 245.605 165.045 245.267 165.114 245.184C165.185 245.088 165.27 244.954 165.368 244.782C165.479 244.612 165.624 244.326 165.803 243.925C165.987 243.497 166.207 243.014 166.464 242.477C166.724 241.927 166.902 241.532 166.998 241.292C167.11 241.041 167.179 240.843 167.205 240.699ZM171.884 246.256C172.002 246.277 172.176 246.213 172.405 246.064C172.637 245.901 172.861 245.819 173.079 245.817C174.354 245.798 175.428 246.123 176.298 246.791C176.945 247.27 177.38 247.76 177.603 248.259C177.842 248.748 177.924 249.358 177.849 250.09C177.79 250.58 177.713 250.939 177.619 251.166C177.537 251.396 177.38 251.639 177.145 251.895C176.25 252.902 175.194 253.704 173.979 254.302C172.763 254.9 171.742 255.126 170.914 254.98C170.31 254.874 169.723 254.56 169.151 254.04C168.582 253.506 168.202 252.931 168.013 252.316C167.855 251.828 167.836 251.249 167.954 250.579C168.074 249.896 168.29 249.325 168.601 248.865C168.874 248.467 169.444 247.924 170.31 247.237C171.175 246.551 171.7 246.223 171.884 246.256ZM174.884 248.247C174.528 247.886 174.127 247.741 173.681 247.812C173.236 247.882 172.615 248.179 171.818 248.702C171.004 249.249 170.456 249.863 170.173 250.544C169.891 251.225 169.918 251.839 170.255 252.386C170.443 252.704 170.729 252.883 171.115 252.924C171.502 252.951 171.914 252.882 172.35 252.715C172.798 252.55 173.267 252.274 173.755 251.886C174.243 251.498 174.681 251.048 175.07 250.534C175.318 250.199 175.461 249.967 175.497 249.838C175.536 249.696 175.511 249.488 175.424 249.216C175.305 248.815 175.125 248.493 174.884 248.247ZM188.061 247.22C188.25 246.684 188.512 246.311 188.847 246.099C189.195 245.89 189.516 245.838 189.809 245.944C190.101 246.05 190.305 246.241 190.418 246.518C190.515 246.738 190.553 246.942 190.534 247.128C190.517 247.301 190.425 247.596 190.256 248.013C189.976 248.681 189.474 249.493 188.75 250.448C188.029 251.391 187.294 252.222 186.544 252.943C185.809 253.653 185.262 254.03 184.902 254.075C184.639 254.11 184.31 254.018 183.915 253.8C183.52 253.581 183.239 253.335 183.07 253.062C182.932 252.848 182.807 252.751 182.695 252.772C182.596 252.795 182.306 252.981 181.825 253.33C181.187 253.799 180.77 254.017 180.573 253.982C180.257 253.926 179.903 253.708 179.51 253.328C179.117 252.947 178.876 252.586 178.787 252.246C178.673 251.819 178.622 250.991 178.636 249.762C178.65 248.532 178.724 247.536 178.858 246.775C178.951 246.25 179.038 245.906 179.121 245.745C179.204 245.583 179.372 245.437 179.625 245.306C180.237 244.98 180.645 245.012 180.847 245.399C181.052 245.774 181.129 246.64 181.079 247.999C181.011 249.382 180.957 250.191 180.915 250.427C180.818 250.979 181.077 250.889 181.694 250.159C182.297 249.426 182.665 248.874 182.797 248.505C182.815 248.481 182.825 248.463 182.828 248.45C182.867 248.226 183.126 247.947 183.605 247.612C184.099 247.266 184.458 247.112 184.681 247.152C185.022 247.212 185.24 247.399 185.333 247.714C185.44 248.03 185.457 248.548 185.385 249.266C185.291 250.184 185.334 250.665 185.516 250.711C185.632 250.745 185.82 250.595 186.082 250.262C186.715 249.44 187.162 248.821 187.425 248.407C187.703 247.982 187.915 247.586 188.061 247.22ZM194.205 250.11C195.186 249.999 195.802 249.959 196.054 249.99C196.306 250.021 196.632 250.166 197.033 250.426C197.555 250.694 197.942 250.993 198.195 251.322C198.464 251.64 198.573 251.943 198.522 252.232C198.474 252.508 198.274 252.872 197.923 253.325C197.575 253.765 197.247 254.092 196.938 254.309C196.572 254.542 196.001 254.746 195.225 254.921C194.465 255.085 193.81 255.152 193.26 255.123C192.682 255.102 192.279 255.159 192.052 255.295C191.827 255.418 191.762 255.637 191.855 255.951C192.085 256.642 193.195 256.682 195.185 256.071C196.13 255.778 196.767 255.619 197.097 255.596C197.439 255.575 197.685 255.673 197.837 255.889C198.107 256.275 197.927 256.724 197.295 257.235C196.76 257.655 195.915 258.034 194.759 258.372C193.603 258.71 192.736 258.828 192.158 258.726C191.843 258.67 191.451 258.473 190.983 258.133C190.526 257.809 190.16 257.466 189.885 257.107C189.521 256.636 189.397 255.992 189.515 255.173C189.632 254.354 189.945 253.617 190.453 252.962C190.786 252.534 190.967 252.234 190.997 252.063C191.03 251.879 191.486 251.52 192.365 250.984C193.258 250.451 193.871 250.16 194.205 250.11ZM195.162 252.513C195.475 252.352 195.599 252.225 195.534 252.132C195.445 252.022 195.236 252.059 194.905 252.244C194.5 252.471 194.323 252.629 194.375 252.72C194.437 252.825 194.7 252.757 195.162 252.513ZM208.418 247.397C208.494 246.964 208.648 246.707 208.879 246.626C209.125 246.534 209.427 246.512 209.784 246.562C210.165 246.629 210.374 246.862 210.412 247.261C210.45 247.661 210.329 248.344 210.051 249.31C209.655 250.635 209.156 251.928 208.554 253.189C207.953 254.45 207.5 255.711 207.197 256.971C206.914 258.112 206.66 258.826 206.434 259.111C206.21 259.383 205.858 259.422 205.377 259.229C205.037 259.088 204.815 258.886 204.712 258.624C204.622 258.365 204.622 257.986 204.71 257.487C204.781 257.08 204.759 256.825 204.641 256.723C204.526 256.608 204.282 256.612 203.908 256.736C203.536 256.846 202.996 256.88 202.286 256.836C201.576 256.792 201.047 256.685 200.697 256.515C200.259 256.316 199.858 255.975 199.497 255.491C199.149 255.01 198.947 254.541 198.892 254.085C198.853 253.767 198.862 253.524 198.919 253.358C198.977 253.179 199.133 252.909 199.386 252.547C199.917 251.842 200.595 251.298 201.421 250.916C202.262 250.522 203.05 250.391 203.785 250.52C204.061 250.569 204.308 250.667 204.526 250.813C204.743 250.96 205.016 251.218 205.344 251.587C205.569 251.844 205.782 252.057 205.982 252.228C206.185 252.385 206.314 252.456 206.371 252.439C206.431 252.408 206.503 252.306 206.588 252.131C206.675 251.944 206.821 251.577 207.026 251.031C207.244 250.487 207.454 249.983 207.658 249.518C208.088 248.537 208.342 247.831 208.418 247.397ZM204.523 253.94C204.254 253.162 203.939 252.68 203.579 252.495C203.233 252.312 202.801 252.378 202.285 252.693C201.833 252.952 201.57 253.291 201.496 253.711C201.422 254.131 201.451 254.394 201.581 254.498C201.696 254.613 202.129 254.689 202.881 254.727C203.648 254.754 204.135 254.718 204.342 254.619C204.492 254.537 204.574 254.457 204.588 254.378C204.615 254.302 204.593 254.156 204.523 253.94ZM217.267 260.676C217.519 260.395 217.79 260.206 218.078 260.108C218.381 259.999 218.662 259.981 218.92 260.053C219.178 260.126 219.408 260.241 219.611 260.398C219.826 260.558 219.974 260.754 220.056 260.985C220.152 261.205 220.17 261.411 220.109 261.603C220.048 261.796 219.822 261.999 219.432 262.215C219.058 262.42 218.655 262.518 218.223 262.509C217.807 262.49 217.453 262.232 217.162 261.733C217.035 261.454 216.974 261.26 216.98 261.153C216.985 261.046 217.081 260.886 217.267 260.676ZM220.298 255.118C220.7 254.985 220.978 254.946 221.131 255C221.284 255.054 221.441 255.238 221.603 255.551C222.004 256.271 221.86 256.855 221.172 257.302C220.486 257.737 219.863 257.816 219.302 257.541C218.866 257.329 218.679 257.005 218.742 256.569C218.795 256.267 218.975 255.981 219.28 255.71C219.587 255.425 219.926 255.228 220.298 255.118ZM225.419 249.542C225.649 249.393 225.949 249.378 226.321 249.498C226.708 249.607 227.043 249.815 227.328 250.122C227.963 250.817 228.405 252.072 228.654 253.89C228.738 254.487 228.766 254.979 228.738 255.367C228.724 255.757 228.627 256.343 228.449 257.123C228.175 258.294 227.836 259.412 227.431 260.478C227.029 261.53 226.681 262.2 226.386 262.487C226.079 262.771 225.915 262.972 225.894 263.09C225.873 263.209 225.332 263.668 224.27 264.469C223.661 264.931 223.207 265.236 222.91 265.387C222.626 265.54 222.378 265.598 222.168 265.561C221.893 265.512 221.592 265.337 221.266 265.036C220.953 264.737 220.812 264.503 220.842 264.332C220.858 264.24 221.101 264.012 221.571 263.648C222.042 263.284 222.563 262.862 223.135 262.381C223.723 261.888 224.119 261.484 224.324 261.169C224.746 260.539 225.165 259.394 225.579 257.734C226.009 256.064 226.216 254.739 226.199 253.762C226.203 253.505 226.158 253.226 226.062 252.925C225.979 252.626 225.879 252.351 225.76 252.1C225.645 251.836 225.529 251.572 225.413 251.308C225.312 251.033 225.233 250.789 225.176 250.576C225.119 250.362 225.107 250.164 225.139 249.98C225.172 249.796 225.265 249.65 225.419 249.542Z" fill="#00563D"/>
<path fill-rule="evenodd" clip-rule="evenodd" d="M189.291 270.846C188.716 270.947 188.516 271.312 188.692 271.938C189.625 275.729 188.984 279.203 186.774 282.361C186.469 282.877 186.562 283.304 187.05 283.646C187.54 283.99 187.975 283.929 188.352 283.466C189.921 281.147 190.779 278.722 190.925 276.191C193.108 280.354 195.821 283.402 199.062 285.334C203.558 288.034 208.593 288.365 214.165 286.329C215.462 285.838 216.535 285.383 217.384 284.971C218.779 288.019 220.536 290.872 222.651 293.532C225.717 297.473 228.859 300.147 232.074 301.558C235.878 303.326 239.15 303.011 241.892 300.616C242.346 300.208 242.368 299.776 241.96 299.32C241.549 298.867 241.117 298.843 240.663 299.254C238.493 301.153 235.865 301.384 232.778 299.951C229.842 298.626 226.927 296.106 224.032 292.399C221.991 289.792 220.312 286.992 218.991 283.995C220.222 283.121 221.316 282.038 222.275 280.747C222.855 279.921 223.312 278.784 223.651 277.341C223.99 275.896 224.1 274.462 223.978 273.032C223.889 271.402 223.499 270.119 222.806 269.185C221.984 267.883 220.782 267.238 219.203 267.252C218.019 267.261 217.085 267.758 216.401 268.735C216.021 269.196 215.633 269.991 215.238 271.114C214.273 273.855 214.573 277.428 216.139 281.829C216.295 282.331 216.48 282.825 216.698 283.313C215.847 283.726 214.774 284.181 213.478 284.672C208.533 286.533 204.032 286.238 199.975 283.79C196.938 281.889 194.372 278.914 192.273 274.867C194.292 276.226 196.266 277.325 198.194 278.173C198.763 278.404 199.161 278.234 199.389 277.665C199.621 277.098 199.451 276.701 198.882 276.471C196.097 275.249 193.291 273.535 190.463 271.33L190.351 271.25C190.081 270.839 189.728 270.703 189.291 270.846ZM218.19 282.257C218.073 281.951 217.946 281.61 217.813 281.237C216.378 277.207 216.089 274.062 216.941 271.802C217.296 270.819 217.603 270.137 217.866 269.761C218.181 269.309 218.602 269.071 219.124 269.045C220.115 269.067 220.871 269.427 221.39 270.128C221.847 270.839 222.122 271.845 222.219 273.145C222.306 274.383 222.195 275.62 221.886 276.863C221.577 278.101 221.18 279.029 220.696 279.641C220.024 280.684 219.189 281.556 218.19 282.257Z" fill="#E8C939"/>
</svg>
