<svg width="770" height="737" viewBox="0 0 770 737" fill="none" xmlns="http://www.w3.org/2000/svg">
<path fill-rule="evenodd" clip-rule="evenodd" d="M346.137 76.6791C425.516 223.604 293.295 253.241 245.689 188.256C234.923 171.744 230.897 150.004 227.171 129.885C220.668 94.7726 215.079 64.595 176.178 75.7494C149.408 83.4258 144.514 109.661 158.743 130.414C193.751 165.901 220.015 199.757 208.569 232.01C186.406 290.139 148.902 298.694 112.501 294.572C112.269 292.731 111.84 290.86 111.216 288.988C107.238 277.053 91.3239 273.074 79.3885 277.053C75.9832 278.755 72.5779 281.915 70.42 285.909C53.359 281.573 38.3631 277.796 27.7268 279.727C-11.6136 286.869 -9.9276 336.05 38.1581 330.539C66.0253 326.687 101.007 333.211 140.909 342.462C291.695 376.458 241.464 498.063 199.978 598.5C190.332 621.852 181.159 644.06 175.095 663.756C149.503 762.146 232.543 734.196 245.085 705.767C249.02 692.051 248.532 679.603 247.974 665.355C247.063 642.128 245.966 614.119 263.535 568.038C272.253 540.706 287.523 507.357 315.925 490.935C376.553 456.996 411.027 505.052 405.065 556.426C403.55 573.605 401.823 590.042 400.197 605.525C396.597 639.791 393.489 669.379 394.263 691.962C404.694 742.774 454.973 744.912 478.454 725.763C509.095 698.689 494.283 670.912 476.585 637.724C454.229 595.802 427.27 545.247 481.497 476.568C493.505 460.709 518.082 445.384 546.512 457.925C563.074 467.106 572.463 483.969 583.34 503.506C588.622 512.993 594.255 523.111 601.232 533.286C651.031 605.919 743.857 525.498 682.613 485.118C671.234 476.503 657.889 472.18 644.392 467.807C620.266 459.992 595.653 452.018 580.904 419.093C563.386 386.867 578.656 353.518 605.961 333.272C633.062 308.382 659.996 308.106 683.132 307.869C699.149 307.705 713.346 307.559 724.517 299.277C776.399 263.706 716.224 198.187 661.613 238.679C654.491 244.07 647.435 248.907 640.458 253.223C639.112 253.183 637.745 253.183 636.378 253.183C635.21 254.35 634.043 255.86 633.076 257.613C497.072 335.238 393.247 215.373 416.689 135.084C466.804 -36.5569 290.293 -31.4691 346.137 76.6791ZM604.55 70.1771C568.743 86.0906 552.829 125.874 568.743 161.68C584.657 197.485 624.442 213.399 660.249 197.485C696.055 181.572 711.969 137.81 696.055 105.983C680.141 70.1771 640.356 54.2636 604.55 70.1771ZM43.582 436.188C31.6465 408.339 43.582 380.491 67.453 368.556C95.3024 356.62 123.152 368.556 135.087 392.426C147.023 420.274 135.087 452.101 111.216 460.058C83.367 471.993 55.5175 460.058 43.582 436.188ZM111.216 161.68C103.259 165.658 103.259 173.615 103.259 181.572C107.238 185.55 115.195 189.528 123.152 185.55C127.13 181.572 131.109 173.615 127.13 169.637C123.152 161.68 119.173 157.701 111.216 161.68ZM652.292 412.318C648.313 416.296 644.335 420.274 648.313 424.253C648.313 432.21 656.27 432.21 660.249 432.21C664.227 428.231 668.206 424.253 664.227 420.274C664.227 412.318 656.27 412.318 652.292 412.318ZM743.797 424.253C739.819 420.274 743.797 412.318 747.776 408.339C755.733 404.361 763.69 408.339 767.668 416.296C771.647 420.274 767.668 428.231 759.711 432.21C755.733 436.188 747.776 432.21 743.797 424.253ZM536.915 209.42C528.958 213.399 524.98 225.334 528.958 233.291C532.937 241.247 540.894 245.226 552.829 241.247C560.786 237.269 564.765 225.334 560.786 217.377C556.808 209.42 544.872 205.442 536.915 209.42Z" fill="#9AB548"/>
</svg>
