<svg width="806" height="723" viewBox="0 0 806 723" fill="none" xmlns="http://www.w3.org/2000/svg">
<path fill-rule="evenodd" clip-rule="evenodd" d="M248.817 175.882C241.808 154.885 227.79 172.382 238.304 179.381C241.808 182.88 252.322 189.879 248.817 175.882Z" fill="#62C7F0"/>
<path fill-rule="evenodd" clip-rule="evenodd" d="M623.795 602.814C648.326 662.305 693.884 606.314 658.839 581.818C651.83 574.819 630.804 567.82 623.795 574.819C616.786 581.818 623.795 599.315 623.795 602.814Z" fill="#9AB548"/>
<path fill-rule="evenodd" clip-rule="evenodd" d="M448.571 130.389C466.094 98.8937 427.545 102.393 431.049 123.39C431.049 137.388 438.058 151.385 448.571 130.389Z" fill="#62C7F0"/>
<path fill-rule="evenodd" clip-rule="evenodd" d="M529.174 280.865C564.218 256.369 606.272 200.378 644.821 200.378C676.361 200.378 676.361 238.872 623.794 259.868C592.254 270.367 560.714 280.865 539.687 305.361C515.156 329.857 532.678 364.852 564.219 371.851C616.785 389.348 602.768 441.84 564.219 438.34C553.705 434.841 529.174 424.343 518.66 441.84C501.138 480.334 567.723 518.828 588.75 532.825C606.272 543.324 585.245 567.82 571.227 543.324C557.21 518.828 511.652 469.835 483.616 494.332C459.085 511.829 536.183 574.819 543.192 623.811C546.696 644.808 532.678 665.805 508.147 658.806C462.589 644.808 452.076 518.828 417.031 522.327C399.509 525.827 399.509 564.32 403.013 578.318C406.518 599.315 410.022 609.813 406.518 634.31C406.518 651.807 399.509 662.305 392.5 634.31C388.995 620.312 388.995 599.315 392.5 581.818C392.5 560.821 388.995 529.326 367.968 522.327C315.402 515.328 311.897 634.31 304.888 669.304C283.861 760.29 217.277 721.796 259.33 655.306C276.852 620.312 304.888 588.817 318.906 553.822C329.419 536.325 339.933 508.329 318.906 490.832C297.879 476.834 252.321 532.825 238.303 546.823C220.781 567.82 206.763 588.817 189.241 609.813C136.674 676.303 98.1247 669.304 115.647 627.311C140.178 581.818 206.763 553.822 248.817 518.828C266.339 504.83 287.366 480.334 273.348 455.838C252.321 417.344 199.754 452.338 175.223 466.336C108.638 511.829 73.5935 490.832 108.638 466.336C126.16 452.338 150.692 445.339 171.718 445.339C192.745 441.84 273.348 424.343 266.339 396.347C262.835 382.349 238.303 378.85 227.79 378.85C199.754 375.35 129.665 396.347 77.098 392.847C-56.0717 385.849 3.5042 284.365 108.638 322.858C140.178 329.857 185.736 354.354 210.268 357.853C269.843 375.35 283.861 333.357 227.79 308.861C129.665 266.867 164.71 158.384 266.339 277.366C301.384 308.861 322.41 273.866 294.375 245.871C290.87 242.371 266.339 217.875 273.348 214.376C276.852 207.377 287.366 217.875 290.87 224.874C297.879 235.372 325.915 270.367 343.437 259.868C378.482 238.872 287.366 130.389 301.384 74.3976C308.393 42.9025 336.428 42.9025 346.942 81.3965C360.96 123.39 343.437 238.872 396.004 238.872C413.527 238.872 431.049 224.874 431.049 196.878C431.049 179.381 452.076 179.381 441.562 200.378C424.04 235.372 448.571 252.87 469.598 249.37C518.66 238.872 532.678 91.8948 574.732 25.4053C616.785 -30.5859 697.388 18.4064 648.326 81.3965C602.768 140.887 483.616 193.379 494.129 277.366C494.129 301.862 515.156 291.363 529.174 280.865Z" fill="#9AB548"/>
<path fill-rule="evenodd" clip-rule="evenodd" d="M648.648 403.938C677.685 411.989 728.873 419.426 758.809 419.703C789.941 423.268 812.101 381.686 783.964 365.859C750.14 344.653 681.282 380.888 648.648 403.938Z" fill="#9AB548"/>
</svg>
